M48
; DRILL file {KiCad 7.0.6} date Mon Apr 22 15:16:06 2024
; FORMAT={-:-/ absolute / inch / decimal}
; #@! TF.CreationDate,2024-04-22T15:16:06+03:00
; #@! TF.GenerationSoftware,Kicad,Pcbnew,7.0.6
; #@! TF.FileFunction,Plated,1,2,PTH
FMAT,2
INCH
; #@! TA.AperFunction,Plated,PTH,ViaDrill
T1C0.0157
; #@! TA.AperFunction,Plated,PTH,ComponentDrill
T2C0.0315
; #@! TA.AperFunction,Plated,PTH,ComponentDrill
T3C0.0374
; #@! TA.AperFunction,Plated,PTH,ComponentDrill
T4C0.0394
; #@! TA.AperFunction,Plated,PTH,ComponentDrill
T5C0.0689
; #@! TA.AperFunction,Plated,PTH,ComponentDrill
T6C0.0906
; #@! TA.AperFunction,Plated,PTH,ComponentDrill
T7C0.1260
; #@! TA.AperFunction,Plated,PTH,ComponentDrill
T8C0.1693
%
G90
G05
T1
X2.9422Y-3.7001
X2.9422Y-3.9245
X2.9475Y-3.0466
X2.9505Y-3.2789
X3.063Y-1.7277
X3.1888Y-3.8123
X3.1956Y-3.1607
X3.2874Y-3.9449
X3.4428Y-1.8545
X3.4606Y-2.4646
X3.4682Y-1.8245
X3.4843Y-2.0472
X3.6208Y-2.1529
X3.7074Y-3.1371
X3.752Y-3.6142
X3.7743Y-2.2434
X3.7763Y-2.2926
X3.7782Y-2.3307
X3.7782Y-2.3891
X3.7782Y-2.4324
X3.8386Y-2.6457
X3.8504Y-2.1535
X3.8504Y-2.378
X4.0341Y-2.2031
X4.0341Y-2.2444
X4.1063Y-2.6535
X4.2283Y-3.0157
X4.2402Y-2.1732
X4.2795Y-4.122
X4.2795Y-4.1811
X4.2795Y-4.4724
X4.2795Y-5.1654
X4.4449Y-2.2441
X4.4449Y-2.4764
X4.5433Y-2.9409
X4.5787Y-4.563
X4.5827Y-3.374
X4.5827Y-3.5709
X4.5827Y-4.8543
X4.6417Y-4.1929
X4.6575Y-2.9606
X4.7559Y-4.2362
X4.8307Y-1.9252
X4.9984Y-3.183
X5.0054Y-5.618
X5.0079Y-1.9718
X5.0079Y-4.4088
X5.0201Y-3.0221
X5.0271Y-5.4572
X5.0289Y-3.1324
X5.0296Y-1.811
X5.0296Y-4.248
X5.0315Y-5.9528
X5.0359Y-5.5674
X5.0384Y-1.9213
X5.0384Y-4.3583
X5.0394Y-2.1575
X5.0417Y-4.7802
X5.0486Y-3.0502
X5.0556Y-5.4852
X5.0581Y-1.8391
X5.0581Y-4.2761
X5.0669Y-2.189
X5.0984Y-2.2205
X5.1299Y-2.0669
X5.1457Y-2.5669
X5.1614Y-2.0945
X5.189Y-2.126
X5.2264Y-5.3839
X5.2283Y-2.9488
X5.2283Y-5.5261
X5.2303Y-3.091
X5.2323Y-4.1772
X5.2343Y-4.3194
X5.2421Y-5.3287
X5.248Y-4.122
X5.252Y-2.9055
X5.2795Y-2.8622
X5.2815Y-5.5531
X5.2835Y-3.1181
X5.2835Y-5.7283
X5.2874Y-4.3465
X5.2894Y-5.3209
X5.2953Y-4.1142
X5.2992Y-5.0669
X5.3031Y-3.8346
X5.3386Y-4.563
X5.3406Y-5.5768
X5.3425Y-3.1417
X5.3465Y-4.3701
X5.374Y-3.3268
X5.3898Y-2.1339
X5.4339Y-3.0084
X5.4409Y-4.374
X5.441Y-5.4434
X5.4434Y-1.7973
X5.4434Y-4.2343
X5.4708Y-2.9759
X5.4778Y-5.411
X5.4803Y-1.7648
X5.4803Y-4.2018
X5.5141Y-3.0143
X5.5212Y-5.4493
X5.5236Y-1.8031
X5.5236Y-4.2402
X5.585Y-2.9857
X5.592Y-5.4208
X5.5945Y-1.7746
X5.5945Y-4.2116
X5.7333Y-5.3907
X5.7362Y-1.7402
X5.7372Y-2.9537
X5.7372Y-4.1703
X5.7687Y-5.9262
X5.7717Y-2.2756
X5.7726Y-3.4892
X5.7726Y-4.7057
X5.8488Y-2.9552
X5.8558Y-5.3903
X5.8583Y-1.7441
X5.8583Y-4.1811
X5.9078Y-3.5448
X5.9149Y-5.9798
X5.9173Y-2.3337
X5.9173Y-4.7707
X5.9196Y-3.0743
X5.9267Y-5.5093
X5.9291Y-1.8632
X5.9291Y-4.3002
X5.9488Y-4.4803
X5.9488Y-5.0827
X5.9646Y-2.1575
X5.9646Y-3.2756
X5.9685Y-2.6575
X5.9742Y-5.7001
X5.9764Y-3.8858
X6.0062Y-3.6432
X6.0133Y-6.0782
X6.0157Y-2.4321
X6.0157Y-4.8691
X6.1829Y-2.9469
X6.19Y-5.3819
X6.1924Y-1.7357
X6.1924Y-4.1727
X6.2582Y-2.9473
X6.2653Y-5.3824
X6.2677Y-1.7362
X6.2677Y-4.1732
X6.312Y-5.9931
X6.315Y-2.3425
X6.3159Y-3.5561
X6.3159Y-4.7726
X6.3829Y-5.312
X6.3858Y-1.6614
X6.3868Y-2.875
X6.3868Y-4.0915
X6.4196Y-2.9188
X6.4196Y-3.5684
X6.4267Y-5.3539
X6.4267Y-6.0035
X6.4291Y-1.7077
X6.4291Y-2.3573
X6.4291Y-4.1447
X6.4291Y-4.7943
X6.5338Y-3.0349
X6.5408Y-5.47
X6.5433Y-1.8238
X6.5433Y-4.2608
X6.5512Y-3.2717
X6.563Y-2.6535
X6.563Y-5.0984
X6.5669Y-2.1378
X6.5709Y-5.7047
X6.5827Y-3.874
X6.5866Y-4.4921
X6.7858Y-3.6088
X6.7928Y-6.0438
X6.7953Y-2.3976
X6.7953Y-4.8346
X6.9104Y-5.3829
X6.9134Y-1.7323
X6.9144Y-2.9459
X6.9144Y-4.1624
X6.9931Y-5.9183
X6.9961Y-2.2677
X6.997Y-3.4813
X6.997Y-4.6978
X6.9984Y-2.9503
X7.0054Y-5.3854
X7.0079Y-1.7392
X7.0079Y-4.1762
X7.0692Y-3.5418
X7.0763Y-5.9769
X7.0787Y-2.3307
X7.0787Y-4.7677
X7.1047Y-3.0585
X7.1117Y-5.4936
X7.1142Y-1.8474
X7.1142Y-4.2844
X7.1575Y-3.2795
X7.1772Y-2.6575
X7.1811Y-3.874
X7.185Y-5.7205
X7.189Y-2.1614
X7.189Y-5.0984
X7.1969Y-4.4921
X7.4275Y-3.5773
X7.4345Y-6.0123
X7.437Y-2.3661
X7.437Y-4.8031
X7.5207Y-5.3986
X7.5236Y-1.748
X7.5246Y-2.9616
X7.5246Y-4.1781
X7.6073Y-5.9183
X7.6102Y-2.2677
X7.6112Y-3.4813
X7.6112Y-4.6978
X7.6401Y-2.9631
X7.6471Y-5.3981
X7.6496Y-1.752
X7.6496Y-4.189
X7.7661Y-3.093
X7.7731Y-5.5281
X7.7756Y-1.8819
X7.7756Y-4.3189
X7.7795Y-4.8268
X7.7795Y-4.9724
X7.7992Y-3.2756
X7.8071Y-3.8031
X7.811Y-5.2047
X7.811Y-5.7205
X7.815Y-4.5157
X7.8268Y-2.1181
X7.8465Y-2.6524
X8.0669Y-6.0276
X8.1024Y-3.815
X8.1614Y-4.8189
X8.2165Y-5.1299
X8.2267Y-3.4434
X8.2338Y-5.8784
X8.2362Y-2.2323
X8.2362Y-4.6693
X8.274Y-3.4119
X8.281Y-5.8469
X8.2835Y-2.2008
X8.2835Y-4.6378
X8.3212Y-3.3765
X8.3282Y-5.8115
X8.3307Y-2.1654
X8.3307Y-4.6024
X8.3566Y-3.4434
X8.3637Y-5.8784
X8.3645Y-3.3371
X8.3661Y-2.2323
X8.3661Y-4.6693
X8.3716Y-5.7721
X8.374Y-2.126
X8.374Y-4.563
X8.4039Y-3.2938
X8.4039Y-3.4119
X8.4109Y-5.7288
X8.4109Y-5.8469
X8.4134Y-2.0827
X8.4134Y-2.2008
X8.4134Y-4.5197
X8.4134Y-4.6378
X8.4413Y-3.3784
X8.4483Y-5.8135
X8.4508Y-2.1673
X8.4508Y-4.6043
X8.4747Y-3.3371
X8.4818Y-5.7721
X8.4843Y-2.126
X8.4843Y-4.563
X8.518Y-3.2969
X8.5251Y-5.732
X8.5276Y-2.0858
X8.5276Y-4.5228
X8.7267Y-3.4158
X8.7338Y-5.8509
X8.7362Y-2.2047
X8.7362Y-4.6417
X8.7621Y-3.3765
X8.7692Y-5.8115
X8.7717Y-2.1654
X8.7717Y-4.6024
X8.8015Y-3.341
X8.8086Y-5.7761
X8.811Y-2.1299
X8.811Y-4.5669
X8.8212Y-3.4158
X8.8282Y-5.8509
X8.8307Y-2.2047
X8.8307Y-4.6417
X8.8606Y-3.3765
X8.8676Y-5.8115
X8.8701Y-2.1654
X8.8701Y-4.6024
X8.896Y-3.341
X8.9031Y-5.7761
X8.9055Y-2.1299
X8.9055Y-4.5669
X9.1991Y-3.3765
X9.2062Y-5.8115
X9.2087Y-2.1654
X9.2087Y-4.6024
X9.3054Y-3.3765
X9.3125Y-5.8115
X9.315Y-2.1654
X9.315Y-4.6024
T2
X3.1897Y-2.1425
X3.1897Y-2.3347
T3
X2.5468Y-1.8445
X2.5468Y-1.9429
X2.6255Y-1.8445
X2.6255Y-1.9429
T4
X3.7732Y-1.4748
X3.7732Y-1.5748
X3.8732Y-1.4748
X3.8732Y-1.5748
X3.9732Y-1.4748
X3.9732Y-1.5748
X4.0732Y-1.4748
X4.0732Y-1.5748
X4.1732Y-1.4748
X4.1732Y-1.5748
X8.3669Y-1.7976
X8.3669Y-3.0189
X8.3669Y-4.2374
X8.3669Y-5.4579
X8.4215Y-1.9094
X8.4215Y-3.1307
X8.4215Y-4.3492
X8.4215Y-5.5697
X8.476Y-1.7976
X8.476Y-3.0189
X8.476Y-4.2374
X8.476Y-5.4579
X8.5305Y-1.9094
X8.5305Y-3.1307
X8.5305Y-4.3492
X8.5305Y-5.5697
X8.585Y-1.7976
X8.585Y-3.0189
X8.585Y-4.2374
X8.585Y-5.4579
X8.6396Y-1.9094
X8.6396Y-3.1307
X8.6396Y-4.3492
X8.6396Y-5.5697
X8.6941Y-1.7976
X8.6941Y-3.0189
X8.6941Y-4.2374
X8.6941Y-5.4579
X8.7486Y-1.9094
X8.7486Y-3.1307
X8.7486Y-4.3492
X8.7486Y-5.5697
X8.8031Y-1.7976
X8.8031Y-3.0189
X8.8031Y-4.2374
X8.8031Y-5.4579
X8.8577Y-1.9094
X8.8577Y-3.1307
X8.8577Y-4.3492
X8.8577Y-5.5697
X8.9122Y-1.7976
X8.9122Y-3.0189
X8.9122Y-4.2374
X8.9122Y-5.4579
X8.9667Y-1.9094
X8.9667Y-3.1307
X8.9667Y-4.3492
X8.9667Y-5.5697
X9.0213Y-1.7976
X9.0213Y-3.0189
X9.0213Y-4.2374
X9.0213Y-5.4579
X9.0758Y-1.9094
X9.0758Y-3.1307
X9.0758Y-4.3492
X9.0758Y-5.5697
X9.1303Y-1.7976
X9.1303Y-3.0189
X9.1303Y-4.2374
X9.1303Y-5.4579
X9.1848Y-1.9094
X9.1848Y-3.1307
X9.1848Y-4.3492
X9.1848Y-5.5697
X9.2394Y-1.7976
X9.2394Y-3.0189
X9.2394Y-4.2374
X9.2394Y-5.4579
X9.2939Y-1.9094
X9.2939Y-3.1307
X9.2939Y-4.3492
X9.2939Y-5.5697
X9.3484Y-1.7976
X9.3484Y-3.0189
X9.3484Y-4.2374
X9.3484Y-5.4579
X9.403Y-1.9094
X9.403Y-3.1307
X9.403Y-4.3492
X9.403Y-5.5697
X9.4575Y-1.7976
X9.4575Y-3.0189
X9.4575Y-4.2374
X9.4575Y-5.4579
X9.512Y-1.9094
X9.512Y-3.1307
X9.512Y-4.3492
X9.512Y-5.5697
X9.5665Y-1.7976
X9.5665Y-3.0189
X9.5665Y-4.2374
X9.5665Y-5.4579
X9.6211Y-1.9094
X9.6211Y-3.1307
X9.6211Y-4.3492
X9.6211Y-5.5697
X9.6756Y-1.7976
X9.6756Y-3.0189
X9.6756Y-4.2374
X9.6756Y-5.4579
X9.7301Y-1.9094
X9.7301Y-3.1307
X9.7301Y-4.3492
X9.7301Y-5.5697
X9.7846Y-1.7976
X9.7846Y-3.0189
X9.7846Y-4.2374
X9.7846Y-5.4579
X9.8392Y-1.9094
X9.8392Y-3.1307
X9.8392Y-4.3492
X9.8392Y-5.5697
X9.8937Y-1.7976
X9.8937Y-3.0189
X9.8937Y-4.2374
X9.8937Y-5.4579
X9.9482Y-1.9094
X9.9482Y-3.1307
X9.9482Y-4.3492
X9.9482Y-5.5697
X10.0028Y-1.7976
X10.0028Y-3.0189
X10.0028Y-4.2374
X10.0028Y-5.4579
X10.0573Y-1.9094
X10.0573Y-3.1307
X10.0573Y-4.3492
X10.0573Y-5.5697
X10.1118Y-1.7976
X10.1118Y-3.0189
X10.1118Y-4.2374
X10.1118Y-5.4579
X10.1663Y-1.9094
X10.1663Y-3.1307
X10.1663Y-4.3492
X10.1663Y-5.5697
X10.2209Y-1.7976
X10.2209Y-3.0189
X10.2209Y-4.2374
X10.2209Y-5.4579
X10.2754Y-1.9094
X10.2754Y-3.1307
X10.2754Y-4.3492
X10.2754Y-5.5697
X10.3299Y-1.7976
X10.3299Y-3.0189
X10.3299Y-4.2374
X10.3299Y-5.4579
T5
X3.5509Y-5.9724
X3.7036Y-5.9724
X4.0509Y-5.9724
X4.2036Y-5.9724
T6
X2.4342Y-1.6575
X2.4342Y-2.1299
T7
X8.0984Y-1.8535
X8.0984Y-3.0748
X8.0984Y-4.2933
X8.0984Y-5.5138
X10.5984Y-1.8535
X10.5984Y-3.0748
X10.5984Y-4.2933
X10.5984Y-5.5138
T8
X2.2244Y-1.4331
X2.2244Y-5.9528
X10.6299Y-1.4331
X10.6299Y-5.9528
T0
M30
