M48
; DRILL file {KiCad 8.0.1} date 2024-05-10T13:00:47+0300
; FORMAT={-:-/ absolute / inch / decimal}
; #@! TF.CreationDate,2024-05-10T13:00:47+03:00
; #@! TF.GenerationSoftware,Kicad,Pcbnew,8.0.1
; #@! TF.FileFunction,Plated,1,2,PTH
FMAT,2
INCH
; #@! TA.AperFunction,Plated,PTH,ViaDrill
T1C0.0157
; #@! TA.AperFunction,Plated,PTH,ComponentDrill
T2C0.0315
; #@! TA.AperFunction,Plated,PTH,ComponentDrill
T3C0.0374
; #@! TA.AperFunction,Plated,PTH,ComponentDrill
T4C0.0394
; #@! TA.AperFunction,Plated,PTH,ComponentDrill
T5C0.0689
; #@! TA.AperFunction,Plated,PTH,ComponentDrill
T6C0.0906
; #@! TA.AperFunction,Plated,PTH,ComponentDrill
T7C0.1260
; #@! TA.AperFunction,Plated,PTH,ComponentDrill
T8C0.1693
%
G90
G05
T1
X3.5315Y-2.6255
X3.6693Y-5.437
X3.7591Y-2.283
X3.7787Y-2.6255
X3.7787Y-2.8027
X3.8819Y-2.5236
X3.8858Y-1.8425
X3.9913Y-2.1924
X4.0354Y-2.4252
X4.0591Y-5.0591
X4.1417Y-2.315
X4.1449Y-2.8578
X4.1614Y-2.7087
X4.189Y-2.9094
X4.2087Y-1.9921
X4.2402Y-1.4646
X4.2591Y-2.6048
X4.2591Y-2.6462
X4.2795Y-2.5551
X4.3622Y-2.4843
X4.3811Y-2.9798
X4.4173Y-4.9213
X4.4606Y-2.1378
X4.4764Y-2.878
X4.4803Y-2.7717
X4.5079Y-2.9764
X4.5581Y-2.4606
X4.5866Y-2.4213
X4.6102Y-2.874
X4.6224Y-2.7622
X4.6516Y-2.7329
X4.7087Y-2.4724
X4.748Y-2.0512
X4.748Y-2.126
X4.748Y-2.4685
X4.7756Y-2.2953
X4.7948Y-2.1255
X4.7953Y-2.0512
X4.8031Y-2.6024
X4.8378Y-2.7121
X4.8425Y-2.0512
X4.8425Y-2.126
X4.8819Y-2.7402
X4.8937Y-3.1339
X5.0Y-3.2835
X5.0236Y-2.3504
X5.0551Y-4.6496
X5.0591Y-4.3504
X5.063Y-4.8898
X5.0906Y-5.0118
X5.257Y-3.6113
X5.2677Y-4.752
X5.2778Y-2.3543
X5.5866Y-3.2677
X5.5945Y-2.6969
X5.5945Y-5.7126
X5.5984Y-1.4803
X5.5984Y-1.6929
X5.5984Y-2.0551
X5.5984Y-5.1496
X5.6024Y-4.4882
X5.6025Y-2.9189
X5.6025Y-4.1364
X5.6025Y-5.3569
X6.2756Y-3.9252
X6.2756Y-5.1457
X6.2795Y-4.4921
X6.2835Y-1.4764
X6.2835Y-3.2756
X6.2835Y-5.7126
X6.2874Y-2.0472
X6.2874Y-2.6969
X6.2913Y-1.6575
X6.2915Y-2.8795
X6.2915Y-4.097
X6.2915Y-5.3175
X6.9685Y-3.2677
X6.9685Y-5.1417
X6.9724Y-2.0551
X6.9724Y-2.7008
X6.9724Y-5.7126
X6.9803Y-1.6299
X6.9803Y-4.4882
X6.9807Y-2.852
X6.9807Y-4.0695
X6.9807Y-5.29
X6.9882Y-1.4803
X7.6811Y-3.2795
X7.6811Y-3.9173
X7.685Y-1.4843
X7.685Y-4.4961
X7.689Y-2.0591
X7.689Y-2.7008
X7.689Y-5.1457
X7.689Y-5.7126
X7.7126Y-1.7008
X7.713Y-2.9228
X7.713Y-4.1404
X7.713Y-5.3608
X7.7397Y-1.7643
X7.7401Y-2.9863
X7.7401Y-4.2038
X7.7401Y-5.4243
X7.7795Y-1.7928
X7.7799Y-3.0149
X7.7799Y-4.2324
X7.7799Y-5.4529
X8.1299Y-2.1929
X8.2008Y-3.4173
X8.2047Y-4.6496
X8.248Y-5.8583
X8.3031Y-5.0827
X8.5315Y-1.4213
X8.5315Y-1.563
X8.5315Y-2.6425
X8.5315Y-2.7843
X8.5315Y-3.861
X8.5315Y-4.0028
X8.5315Y-5.0815
X8.5315Y-5.2232
X8.6378Y-2.2953
X8.6382Y-3.5173
X8.6382Y-4.7348
X8.6382Y-5.9553
X8.6396Y-1.9843
X8.64Y-3.2063
X8.64Y-4.4238
X8.64Y-5.6443
X8.8031Y-1.4213
X8.8031Y-1.563
X8.8031Y-2.6425
X8.8031Y-2.7843
X8.8031Y-3.861
X8.8031Y-4.0028
X8.8031Y-5.0815
X8.8031Y-5.2232
X8.9685Y-1.4213
X8.9685Y-1.563
X8.9685Y-2.6425
X8.9685Y-2.7843
X8.9685Y-3.861
X8.9685Y-4.0028
X8.9685Y-5.0815
X8.9685Y-5.2232
X8.9961Y-4.9843
X9.0758Y-1.9803
X9.0762Y-3.2024
X9.0762Y-4.4199
X9.0762Y-5.6404
X9.0787Y-2.2402
X9.0791Y-3.4622
X9.0791Y-4.6797
X9.0791Y-5.9002
X9.2402Y-1.4213
X9.2402Y-1.563
X9.2402Y-2.6425
X9.2402Y-2.7843
X9.2402Y-3.861
X9.2402Y-4.0028
X9.2402Y-5.0815
X9.2402Y-5.2232
X9.4016Y-1.4213
X9.4016Y-1.563
X9.4016Y-2.6425
X9.4016Y-2.7843
X9.4016Y-3.861
X9.4016Y-4.0028
X9.4016Y-5.0815
X9.4016Y-5.2232
X9.5118Y-2.1654
X9.512Y-1.9843
X9.5122Y-3.3874
X9.5122Y-4.6049
X9.5122Y-5.8254
X9.5124Y-3.2063
X9.5124Y-4.4238
X9.5124Y-5.6443
X9.6732Y-1.5669
X9.6732Y-2.7882
X9.6732Y-4.0067
X9.6732Y-5.2272
X9.6772Y-1.4213
X9.6772Y-2.6425
X9.6772Y-3.861
X9.6772Y-5.0815
X9.7717Y-3.4606
X9.7992Y-4.6417
X9.8031Y-5.9055
X9.8583Y-2.185
X10.1142Y-1.4213
X10.1142Y-1.5709
X10.1142Y-2.6417
X10.1142Y-2.7921
X10.1142Y-3.8583
X10.1142Y-4.0106
X10.1142Y-5.0787
X10.1142Y-5.2311
X10.2638Y-5.1535
X10.2677Y-4.9843
X10.3583Y-2.6417
X10.3583Y-3.8583
X10.4724Y-2.6417
X10.4724Y-3.8583
T2
X3.9008Y-3.1401
X3.9008Y-3.3322
T3
X3.1373Y-2.5768
X3.1373Y-2.6752
X3.216Y-2.5768
X3.216Y-2.6752
T4
X4.3394Y-1.4153
X4.3394Y-1.5153
X4.4394Y-1.4153
X4.4394Y-1.5153
X4.5394Y-1.4153
X4.5394Y-1.5153
X4.6394Y-1.4153
X4.6394Y-1.5153
X4.7394Y-1.4153
X4.7394Y-1.5153
X8.3669Y-1.7976
X8.3669Y-3.0189
X8.3669Y-4.2374
X8.3669Y-5.4579
X8.4215Y-1.9094
X8.4215Y-3.1307
X8.4215Y-4.3492
X8.4215Y-5.5697
X8.476Y-1.7976
X8.476Y-3.0189
X8.476Y-4.2374
X8.476Y-5.4579
X8.5305Y-1.9094
X8.5305Y-3.1307
X8.5305Y-4.3492
X8.5305Y-5.5697
X8.585Y-1.7976
X8.585Y-3.0189
X8.585Y-4.2374
X8.585Y-5.4579
X8.6396Y-1.9094
X8.6396Y-3.1307
X8.6396Y-4.3492
X8.6396Y-5.5697
X8.6941Y-1.7976
X8.6941Y-3.0189
X8.6941Y-4.2374
X8.6941Y-5.4579
X8.7486Y-1.9094
X8.7486Y-3.1307
X8.7486Y-4.3492
X8.7486Y-5.5697
X8.8031Y-1.7976
X8.8031Y-3.0189
X8.8031Y-4.2374
X8.8031Y-5.4579
X8.8577Y-1.9094
X8.8577Y-3.1307
X8.8577Y-4.3492
X8.8577Y-5.5697
X8.9122Y-1.7976
X8.9122Y-3.0189
X8.9122Y-4.2374
X8.9122Y-5.4579
X8.9667Y-1.9094
X8.9667Y-3.1307
X8.9667Y-4.3492
X8.9667Y-5.5697
X9.0213Y-1.7976
X9.0213Y-3.0189
X9.0213Y-4.2374
X9.0213Y-5.4579
X9.0758Y-1.9094
X9.0758Y-3.1307
X9.0758Y-4.3492
X9.0758Y-5.5697
X9.1303Y-1.7976
X9.1303Y-3.0189
X9.1303Y-4.2374
X9.1303Y-5.4579
X9.1848Y-1.9094
X9.1848Y-3.1307
X9.1848Y-4.3492
X9.1848Y-5.5697
X9.2394Y-1.7976
X9.2394Y-3.0189
X9.2394Y-4.2374
X9.2394Y-5.4579
X9.2939Y-1.9094
X9.2939Y-3.1307
X9.2939Y-4.3492
X9.2939Y-5.5697
X9.3484Y-1.7976
X9.3484Y-3.0189
X9.3484Y-4.2374
X9.3484Y-5.4579
X9.403Y-1.9094
X9.403Y-3.1307
X9.403Y-4.3492
X9.403Y-5.5697
X9.4575Y-1.7976
X9.4575Y-3.0189
X9.4575Y-4.2374
X9.4575Y-5.4579
X9.512Y-1.9094
X9.512Y-3.1307
X9.512Y-4.3492
X9.512Y-5.5697
X9.5665Y-1.7976
X9.5665Y-3.0189
X9.5665Y-4.2374
X9.5665Y-5.4579
X9.6211Y-1.9094
X9.6211Y-3.1307
X9.6211Y-4.3492
X9.6211Y-5.5697
X9.6756Y-1.7976
X9.6756Y-3.0189
X9.6756Y-4.2374
X9.6756Y-5.4579
X9.7301Y-1.9094
X9.7301Y-3.1307
X9.7301Y-4.3492
X9.7301Y-5.5697
X9.7846Y-1.7976
X9.7846Y-3.0189
X9.7846Y-4.2374
X9.7846Y-5.4579
X9.8392Y-1.9094
X9.8392Y-3.1307
X9.8392Y-4.3492
X9.8392Y-5.5697
X9.8937Y-1.7976
X9.8937Y-3.0189
X9.8937Y-4.2374
X9.8937Y-5.4579
X9.9482Y-1.9094
X9.9482Y-3.1307
X9.9482Y-4.3492
X9.9482Y-5.5697
X10.0028Y-1.7976
X10.0028Y-3.0189
X10.0028Y-4.2374
X10.0028Y-5.4579
X10.0573Y-1.9094
X10.0573Y-3.1307
X10.0573Y-4.3492
X10.0573Y-5.5697
X10.1118Y-1.7976
X10.1118Y-3.0189
X10.1118Y-4.2374
X10.1118Y-5.4579
X10.1663Y-1.9094
X10.1663Y-3.1307
X10.1663Y-4.3492
X10.1663Y-5.5697
X10.2209Y-1.7976
X10.2209Y-3.0189
X10.2209Y-4.2374
X10.2209Y-5.4579
X10.2754Y-1.9094
X10.2754Y-3.1307
X10.2754Y-4.3492
X10.2754Y-5.5697
X10.3299Y-1.7976
X10.3299Y-3.0189
X10.3299Y-4.2374
X10.3299Y-5.4579
T5
X3.421Y-5.9626
X3.5737Y-5.9626
X4.4682Y-5.9665
X4.621Y-5.9665
T6
X3.0247Y-2.3898
X3.0247Y-2.8622
T7
X8.0984Y-1.8535
X8.0984Y-3.0748
X8.0984Y-4.2933
X8.0984Y-5.5138
X10.5984Y-1.8535
X10.5984Y-3.0748
X10.5984Y-4.2933
X10.5984Y-5.5138
T8
X2.7992Y-1.4331
X2.7992Y-5.9528
X10.6299Y-1.4331
X10.6299Y-5.9528
M30
