G04 #@! TF.GenerationSoftware,KiCad,Pcbnew,8.0.1*
G04 #@! TF.CreationDate,2024-05-10T13:00:16+03:00*
G04 #@! TF.ProjectId,sensor_current_stand,73656e73-6f72-45f6-9375-7272656e745f,rev?*
G04 #@! TF.SameCoordinates,Original*
G04 #@! TF.FileFunction,Soldermask,Bot*
G04 #@! TF.FilePolarity,Negative*
%FSLAX46Y46*%
G04 Gerber Fmt 4.6, Leading zero omitted, Abs format (unit mm)*
G04 Created by KiCad (PCBNEW 8.0.1) date 2024-05-10 13:00:17*
%MOMM*%
%LPD*%
G01*
G04 APERTURE LIST*
G04 Aperture macros list*
%AMRoundRect*
0 Rectangle with rounded corners*
0 $1 Rounding radius*
0 $2 $3 $4 $5 $6 $7 $8 $9 X,Y pos of 4 corners*
0 Add a 4 corners polygon primitive as box body*
4,1,4,$2,$3,$4,$5,$6,$7,$8,$9,$2,$3,0*
0 Add four circle primitives for the rounded corners*
1,1,$1+$1,$2,$3*
1,1,$1+$1,$4,$5*
1,1,$1+$1,$6,$7*
1,1,$1+$1,$8,$9*
0 Add four rect primitives between the rounded corners*
20,1,$1+$1,$2,$3,$4,$5,0*
20,1,$1+$1,$4,$5,$6,$7,0*
20,1,$1+$1,$6,$7,$8,$9,0*
20,1,$1+$1,$8,$9,$2,$3,0*%
G04 Aperture macros list end*
%ADD10C,4.000000*%
%ADD11R,1.600000X1.600000*%
%ADD12C,1.600000*%
%ADD13C,4.700000*%
%ADD14C,8.600000*%
%ADD15R,3.000000X3.000000*%
%ADD16C,3.000000*%
%ADD17RoundRect,0.250000X-0.600000X0.600000X-0.600000X-0.600000X0.600000X-0.600000X0.600000X0.600000X0*%
%ADD18C,1.700000*%
%ADD19C,1.500000*%
G04 APERTURE END LIST*
D10*
X205700000Y-140050000D03*
X269200000Y-140050000D03*
D11*
X212520000Y-138630000D03*
D12*
X215290000Y-138630000D03*
X218060000Y-138630000D03*
X220830000Y-138630000D03*
X223600000Y-138630000D03*
X226370000Y-138630000D03*
X229140000Y-138630000D03*
X231910000Y-138630000D03*
X234680000Y-138630000D03*
X237450000Y-138630000D03*
X240220000Y-138630000D03*
X242990000Y-138630000D03*
X245760000Y-138630000D03*
X248530000Y-138630000D03*
X251300000Y-138630000D03*
X254070000Y-138630000D03*
X256840000Y-138630000D03*
X259610000Y-138630000D03*
X262380000Y-138630000D03*
X213905000Y-141470000D03*
X216675000Y-141470000D03*
X219445000Y-141470000D03*
X222215000Y-141470000D03*
X224985000Y-141470000D03*
X227755000Y-141470000D03*
X230525000Y-141470000D03*
X233295000Y-141470000D03*
X236065000Y-141470000D03*
X238835000Y-141470000D03*
X241605000Y-141470000D03*
X244375000Y-141470000D03*
X247145000Y-141470000D03*
X249915000Y-141470000D03*
X252685000Y-141470000D03*
X255455000Y-141470000D03*
X258225000Y-141470000D03*
X260995000Y-141470000D03*
D13*
X71100000Y-151200000D03*
D14*
X71100000Y-151200000D03*
D15*
X86892500Y-151450000D03*
D16*
X90772500Y-151450000D03*
D10*
X205700000Y-78100000D03*
X269200000Y-78100000D03*
D11*
X212520000Y-76680000D03*
D12*
X215290000Y-76680000D03*
X218060000Y-76680000D03*
X220830000Y-76680000D03*
X223600000Y-76680000D03*
X226370000Y-76680000D03*
X229140000Y-76680000D03*
X231910000Y-76680000D03*
X234680000Y-76680000D03*
X237450000Y-76680000D03*
X240220000Y-76680000D03*
X242990000Y-76680000D03*
X245760000Y-76680000D03*
X248530000Y-76680000D03*
X251300000Y-76680000D03*
X254070000Y-76680000D03*
X256840000Y-76680000D03*
X259610000Y-76680000D03*
X262380000Y-76680000D03*
X213905000Y-79520000D03*
X216675000Y-79520000D03*
X219445000Y-79520000D03*
X222215000Y-79520000D03*
X224985000Y-79520000D03*
X227755000Y-79520000D03*
X230525000Y-79520000D03*
X233295000Y-79520000D03*
X236065000Y-79520000D03*
X238835000Y-79520000D03*
X241605000Y-79520000D03*
X244375000Y-79520000D03*
X247145000Y-79520000D03*
X249915000Y-79520000D03*
X252685000Y-79520000D03*
X255455000Y-79520000D03*
X258225000Y-79520000D03*
X260995000Y-79520000D03*
D11*
X81687500Y-67950000D03*
D12*
X81687500Y-65450000D03*
X79687500Y-65450000D03*
X79687500Y-67950000D03*
D10*
X76827500Y-72700000D03*
X76827500Y-60700000D03*
X205700000Y-109050000D03*
X269200000Y-109050000D03*
D11*
X212520000Y-107630000D03*
D12*
X215290000Y-107630000D03*
X218060000Y-107630000D03*
X220830000Y-107630000D03*
X223600000Y-107630000D03*
X226370000Y-107630000D03*
X229140000Y-107630000D03*
X231910000Y-107630000D03*
X234680000Y-107630000D03*
X237450000Y-107630000D03*
X240220000Y-107630000D03*
X242990000Y-107630000D03*
X245760000Y-107630000D03*
X248530000Y-107630000D03*
X251300000Y-107630000D03*
X254070000Y-107630000D03*
X256840000Y-107630000D03*
X259610000Y-107630000D03*
X262380000Y-107630000D03*
X213905000Y-110470000D03*
X216675000Y-110470000D03*
X219445000Y-110470000D03*
X222215000Y-110470000D03*
X224985000Y-110470000D03*
X227755000Y-110470000D03*
X230525000Y-110470000D03*
X233295000Y-110470000D03*
X236065000Y-110470000D03*
X238835000Y-110470000D03*
X241605000Y-110470000D03*
X244375000Y-110470000D03*
X247145000Y-110470000D03*
X249915000Y-110470000D03*
X252685000Y-110470000D03*
X255455000Y-110470000D03*
X258225000Y-110470000D03*
X260995000Y-110470000D03*
D15*
X113492500Y-151550000D03*
D16*
X117372500Y-151550000D03*
D17*
X120380000Y-35947500D03*
D18*
X120380000Y-38487500D03*
X117840000Y-35947500D03*
X117840000Y-38487500D03*
X115300000Y-35947500D03*
X115300000Y-38487500D03*
X112760000Y-35947500D03*
X112760000Y-38487500D03*
X110220000Y-35947500D03*
X110220000Y-38487500D03*
D13*
X71100000Y-36400000D03*
D14*
X71100000Y-36400000D03*
D13*
X270000000Y-36400000D03*
D14*
X270000000Y-36400000D03*
D13*
X270000000Y-151200000D03*
D14*
X270000000Y-151200000D03*
D19*
X99080000Y-84637500D03*
X99080000Y-79757500D03*
D10*
X205700000Y-47080000D03*
X269200000Y-47080000D03*
D11*
X212520000Y-45660000D03*
D12*
X215290000Y-45660000D03*
X218060000Y-45660000D03*
X220830000Y-45660000D03*
X223600000Y-45660000D03*
X226370000Y-45660000D03*
X229140000Y-45660000D03*
X231910000Y-45660000D03*
X234680000Y-45660000D03*
X237450000Y-45660000D03*
X240220000Y-45660000D03*
X242990000Y-45660000D03*
X245760000Y-45660000D03*
X248530000Y-45660000D03*
X251300000Y-45660000D03*
X254070000Y-45660000D03*
X256840000Y-45660000D03*
X259610000Y-45660000D03*
X262380000Y-45660000D03*
X213905000Y-48500000D03*
X216675000Y-48500000D03*
X219445000Y-48500000D03*
X222215000Y-48500000D03*
X224985000Y-48500000D03*
X227755000Y-48500000D03*
X230525000Y-48500000D03*
X233295000Y-48500000D03*
X236065000Y-48500000D03*
X238835000Y-48500000D03*
X241605000Y-48500000D03*
X244375000Y-48500000D03*
X247145000Y-48500000D03*
X249915000Y-48500000D03*
X252685000Y-48500000D03*
X255455000Y-48500000D03*
X258225000Y-48500000D03*
X260995000Y-48500000D03*
M02*
