G04 #@! TF.GenerationSoftware,KiCad,Pcbnew,8.0.1*
G04 #@! TF.CreationDate,2024-05-09T21:01:05+03:00*
G04 #@! TF.ProjectId,sensor_current_stand,73656e73-6f72-45f6-9375-7272656e745f,rev?*
G04 #@! TF.SameCoordinates,Original*
G04 #@! TF.FileFunction,Paste,Top*
G04 #@! TF.FilePolarity,Positive*
%FSLAX46Y46*%
G04 Gerber Fmt 4.6, Leading zero omitted, Abs format (unit mm)*
G04 Created by KiCad (PCBNEW 8.0.1) date 2024-05-09 21:01:05*
%MOMM*%
%LPD*%
G01*
G04 APERTURE LIST*
G04 Aperture macros list*
%AMRoundRect*
0 Rectangle with rounded corners*
0 $1 Rounding radius*
0 $2 $3 $4 $5 $6 $7 $8 $9 X,Y pos of 4 corners*
0 Add a 4 corners polygon primitive as box body*
4,1,4,$2,$3,$4,$5,$6,$7,$8,$9,$2,$3,0*
0 Add four circle primitives for the rounded corners*
1,1,$1+$1,$2,$3*
1,1,$1+$1,$4,$5*
1,1,$1+$1,$6,$7*
1,1,$1+$1,$8,$9*
0 Add four rect primitives between the rounded corners*
20,1,$1+$1,$2,$3,$4,$5,0*
20,1,$1+$1,$4,$5,$6,$7,0*
20,1,$1+$1,$6,$7,$8,$9,0*
20,1,$1+$1,$8,$9,$2,$3,0*%
G04 Aperture macros list end*
%ADD10RoundRect,0.250000X0.450000X-0.325000X0.450000X0.325000X-0.450000X0.325000X-0.450000X-0.325000X0*%
%ADD11RoundRect,0.250000X0.400000X0.625000X-0.400000X0.625000X-0.400000X-0.625000X0.400000X-0.625000X0*%
%ADD12RoundRect,0.250000X-0.625000X0.400000X-0.625000X-0.400000X0.625000X-0.400000X0.625000X0.400000X0*%
%ADD13RoundRect,0.150000X-0.587500X-0.150000X0.587500X-0.150000X0.587500X0.150000X-0.587500X0.150000X0*%
%ADD14RoundRect,0.250000X0.250000X0.475000X-0.250000X0.475000X-0.250000X-0.475000X0.250000X-0.475000X0*%
%ADD15RoundRect,0.250000X-0.475000X0.250000X-0.475000X-0.250000X0.475000X-0.250000X0.475000X0.250000X0*%
%ADD16RoundRect,0.250000X0.625000X-0.400000X0.625000X0.400000X-0.625000X0.400000X-0.625000X-0.400000X0*%
%ADD17RoundRect,0.075000X-0.075000X-0.700000X0.075000X-0.700000X0.075000X0.700000X-0.075000X0.700000X0*%
%ADD18RoundRect,0.075000X-0.700000X-0.075000X0.700000X-0.075000X0.700000X0.075000X-0.700000X0.075000X0*%
%ADD19RoundRect,0.150000X-0.512500X-0.150000X0.512500X-0.150000X0.512500X0.150000X-0.512500X0.150000X0*%
%ADD20RoundRect,0.250000X-0.400000X-0.625000X0.400000X-0.625000X0.400000X0.625000X-0.400000X0.625000X0*%
%ADD21RoundRect,0.250000X-0.337500X-0.475000X0.337500X-0.475000X0.337500X0.475000X-0.337500X0.475000X0*%
%ADD22RoundRect,0.250000X0.337500X0.475000X-0.337500X0.475000X-0.337500X-0.475000X0.337500X-0.475000X0*%
%ADD23RoundRect,0.250000X-0.325000X-0.450000X0.325000X-0.450000X0.325000X0.450000X-0.325000X0.450000X0*%
G04 APERTURE END LIST*
D10*
X197500000Y-117050000D03*
X197500000Y-115000000D03*
D11*
X138050000Y-127500000D03*
X134950000Y-127500000D03*
D12*
X187000000Y-83950000D03*
X187000000Y-87050000D03*
D10*
X179500000Y-86050000D03*
X179500000Y-84000000D03*
D11*
X197550000Y-127500000D03*
X194450000Y-127500000D03*
X155550000Y-65500000D03*
X152450000Y-65500000D03*
X144550000Y-34475000D03*
X141450000Y-34475000D03*
D13*
X173062500Y-131550000D03*
X173062500Y-133450000D03*
X174937500Y-132500000D03*
D11*
X173050000Y-111000000D03*
X169950000Y-111000000D03*
X179550000Y-142000000D03*
X176450000Y-142000000D03*
X155550000Y-80000000D03*
X152450000Y-80000000D03*
D12*
X151500000Y-145950000D03*
X151500000Y-149050000D03*
D10*
X144500000Y-86025000D03*
X144500000Y-83975000D03*
D14*
X99630000Y-59787500D03*
X97730000Y-59787500D03*
D11*
X191050000Y-96500000D03*
X187950000Y-96500000D03*
X138050000Y-34475000D03*
X134950000Y-34475000D03*
D13*
X191000000Y-146000000D03*
X191000000Y-147900000D03*
X192875000Y-146950000D03*
X155562500Y-100550000D03*
X155562500Y-102450000D03*
X157437500Y-101500000D03*
D10*
X197500000Y-40500000D03*
X197500000Y-38450000D03*
X144500000Y-71525000D03*
X144500000Y-69475000D03*
D11*
X138050000Y-49000000D03*
X134950000Y-49000000D03*
D13*
X138062500Y-115050000D03*
X138062500Y-116950000D03*
X139937500Y-116000000D03*
X191062500Y-115050000D03*
X191062500Y-116950000D03*
X192937500Y-116000000D03*
D12*
X169000000Y-145950000D03*
X169000000Y-149050000D03*
D11*
X144550000Y-127500000D03*
X141450000Y-127500000D03*
D13*
X155500000Y-69500000D03*
X155500000Y-71400000D03*
X157375000Y-70450000D03*
X138062500Y-53050000D03*
X138062500Y-54950000D03*
X139937500Y-54000000D03*
D12*
X134000000Y-69450000D03*
X134000000Y-72550000D03*
D15*
X107080000Y-54737500D03*
X107080000Y-56637500D03*
D11*
X173050000Y-34475000D03*
X169950000Y-34475000D03*
D10*
X179500000Y-102525000D03*
X179500000Y-100475000D03*
X179500000Y-148025000D03*
X179500000Y-145975000D03*
D11*
X107750000Y-61600000D03*
X104650000Y-61600000D03*
X144550000Y-80000000D03*
X141450000Y-80000000D03*
X191050000Y-49000000D03*
X187950000Y-49000000D03*
D13*
X155562500Y-131550000D03*
X155562500Y-133450000D03*
X157437500Y-132500000D03*
D12*
X169000000Y-114950000D03*
X169000000Y-118050000D03*
D11*
X191100000Y-34475000D03*
X188000000Y-34475000D03*
D10*
X197500000Y-86025000D03*
X197500000Y-83975000D03*
D12*
X151500000Y-100450000D03*
X151500000Y-103550000D03*
D10*
X179500000Y-117025000D03*
X179500000Y-114975000D03*
D13*
X155532500Y-38700000D03*
X155532500Y-40600000D03*
X157407500Y-39650000D03*
D10*
X179500000Y-55025000D03*
X179500000Y-52975000D03*
D11*
X197550000Y-142000000D03*
X194450000Y-142000000D03*
D13*
X155562500Y-53050000D03*
X155562500Y-54950000D03*
X157437500Y-54000000D03*
D11*
X197550000Y-65500000D03*
X194450000Y-65500000D03*
D10*
X144475000Y-55025000D03*
X144475000Y-52975000D03*
D12*
X151500000Y-69450000D03*
X151500000Y-72550000D03*
X151500000Y-52450000D03*
X151500000Y-55550000D03*
D11*
X144550000Y-96500000D03*
X141450000Y-96500000D03*
X155550000Y-49000000D03*
X152450000Y-49000000D03*
X155550000Y-34475000D03*
X152450000Y-34475000D03*
X179550000Y-65500000D03*
X176450000Y-65500000D03*
D10*
X197500000Y-71525000D03*
X197500000Y-69475000D03*
X162000000Y-71525000D03*
X162000000Y-69475000D03*
D12*
X151500000Y-38425000D03*
X151500000Y-41525000D03*
D13*
X155500000Y-146000000D03*
X155500000Y-147900000D03*
X157375000Y-146950000D03*
D11*
X173050000Y-65500000D03*
X169950000Y-65500000D03*
D12*
X134000000Y-38425000D03*
X134000000Y-41525000D03*
X169000000Y-83950000D03*
X169000000Y-87050000D03*
D16*
X113300000Y-59050000D03*
X113300000Y-55950000D03*
D13*
X191000000Y-69500000D03*
X191000000Y-71400000D03*
X192875000Y-70450000D03*
D12*
X187000000Y-145950000D03*
X187000000Y-149050000D03*
D13*
X138062500Y-69550000D03*
X138062500Y-71450000D03*
X139937500Y-70500000D03*
D17*
X111330000Y-66512500D03*
X111830000Y-66512500D03*
X112330000Y-66512500D03*
X112830000Y-66512500D03*
X113330000Y-66512500D03*
X113830000Y-66512500D03*
X114330000Y-66512500D03*
X114830000Y-66512500D03*
X115330000Y-66512500D03*
X115830000Y-66512500D03*
X116330000Y-66512500D03*
X116830000Y-66512500D03*
X117330000Y-66512500D03*
X117830000Y-66512500D03*
X118330000Y-66512500D03*
X118830000Y-66512500D03*
D18*
X120755000Y-68437500D03*
X120755000Y-68937500D03*
X120755000Y-69437500D03*
X120755000Y-69937500D03*
X120755000Y-70437500D03*
X120755000Y-70937500D03*
X120755000Y-71437500D03*
X120755000Y-71937500D03*
X120755000Y-72437500D03*
X120755000Y-72937500D03*
X120755000Y-73437500D03*
X120755000Y-73937500D03*
X120755000Y-74437500D03*
X120755000Y-74937500D03*
X120755000Y-75437500D03*
X120755000Y-75937500D03*
D17*
X118830000Y-77862500D03*
X118330000Y-77862500D03*
X117830000Y-77862500D03*
X117330000Y-77862500D03*
X116830000Y-77862500D03*
X116330000Y-77862500D03*
X115830000Y-77862500D03*
X115330000Y-77862500D03*
X114830000Y-77862500D03*
X114330000Y-77862500D03*
X113830000Y-77862500D03*
X113330000Y-77862500D03*
X112830000Y-77862500D03*
X112330000Y-77862500D03*
X111830000Y-77862500D03*
X111330000Y-77862500D03*
D18*
X109405000Y-75937500D03*
X109405000Y-75437500D03*
X109405000Y-74937500D03*
X109405000Y-74437500D03*
X109405000Y-73937500D03*
X109405000Y-73437500D03*
X109405000Y-72937500D03*
X109405000Y-72437500D03*
X109405000Y-71937500D03*
X109405000Y-71437500D03*
X109405000Y-70937500D03*
X109405000Y-70437500D03*
X109405000Y-69937500D03*
X109405000Y-69437500D03*
X109405000Y-68937500D03*
X109405000Y-68437500D03*
D11*
X173050000Y-49000000D03*
X169950000Y-49000000D03*
X197550000Y-96500000D03*
X194450000Y-96500000D03*
D10*
X162000000Y-86050000D03*
X162000000Y-84000000D03*
D12*
X151500000Y-114950000D03*
X151500000Y-118050000D03*
D11*
X179550000Y-127500000D03*
X176450000Y-127500000D03*
D10*
X179500000Y-71525000D03*
X179500000Y-69475000D03*
D12*
X169000000Y-131400000D03*
X169000000Y-134500000D03*
D10*
X162000000Y-40500000D03*
X162000000Y-38450000D03*
D11*
X155550000Y-96500000D03*
X152450000Y-96500000D03*
D12*
X187000000Y-131450000D03*
X187000000Y-134550000D03*
D13*
X191000000Y-84000000D03*
X191000000Y-85900000D03*
X192875000Y-84950000D03*
D10*
X144500000Y-133525000D03*
X144500000Y-131475000D03*
D11*
X173050000Y-96500000D03*
X169950000Y-96500000D03*
D13*
X191062500Y-38525000D03*
X191062500Y-40425000D03*
X192937500Y-39475000D03*
D10*
X197500000Y-133525000D03*
X197500000Y-131475000D03*
D11*
X138050000Y-142000000D03*
X134950000Y-142000000D03*
X191050000Y-65500000D03*
X187950000Y-65500000D03*
X179550000Y-80000000D03*
X176450000Y-80000000D03*
D10*
X144500000Y-40500000D03*
X144500000Y-38450000D03*
D11*
X144550000Y-142000000D03*
X141450000Y-142000000D03*
D12*
X134000000Y-145950000D03*
X134000000Y-149050000D03*
D11*
X179550000Y-111000000D03*
X176450000Y-111000000D03*
D10*
X162000000Y-102550000D03*
X162000000Y-100500000D03*
D12*
X151500000Y-131450000D03*
X151500000Y-134550000D03*
D13*
X138062500Y-84050000D03*
X138062500Y-85950000D03*
X139937500Y-85000000D03*
D12*
X151500000Y-83950000D03*
X151500000Y-87050000D03*
D11*
X179550000Y-96500000D03*
X176450000Y-96500000D03*
D12*
X134000000Y-83950000D03*
X134000000Y-87050000D03*
D11*
X191050000Y-127500000D03*
X187950000Y-127500000D03*
D14*
X93580000Y-71187500D03*
X91680000Y-71187500D03*
D12*
X169000000Y-100160000D03*
X169000000Y-103260000D03*
D11*
X155550000Y-127500000D03*
X152450000Y-127500000D03*
X173050000Y-142000000D03*
X169950000Y-142000000D03*
D10*
X162000000Y-117025000D03*
X162000000Y-114975000D03*
D13*
X173062500Y-115050000D03*
X173062500Y-116950000D03*
X174937500Y-116000000D03*
D12*
X169000000Y-52450000D03*
X169000000Y-55550000D03*
D13*
X173000000Y-100500000D03*
X173000000Y-102400000D03*
X174875000Y-101450000D03*
D11*
X197550000Y-80000000D03*
X194450000Y-80000000D03*
X144550000Y-65500000D03*
X141450000Y-65500000D03*
D13*
X173000000Y-53000000D03*
X173000000Y-54900000D03*
X174875000Y-53950000D03*
D10*
X179500000Y-133525000D03*
X179500000Y-131475000D03*
D12*
X134000000Y-100450000D03*
X134000000Y-103550000D03*
D11*
X138050000Y-65500000D03*
X134950000Y-65500000D03*
X162050000Y-34475000D03*
X158950000Y-34475000D03*
X173050000Y-127500000D03*
X169950000Y-127500000D03*
X138050000Y-96500000D03*
X134950000Y-96500000D03*
D13*
X138062500Y-38525000D03*
X138062500Y-40425000D03*
X139937500Y-39475000D03*
D11*
X191050000Y-111000000D03*
X187950000Y-111000000D03*
D13*
X173062500Y-69550000D03*
X173062500Y-71450000D03*
X174937500Y-70500000D03*
D12*
X169000000Y-69450000D03*
X169000000Y-72550000D03*
X134000000Y-114950000D03*
X134000000Y-118050000D03*
D19*
X97442500Y-54737500D03*
X97442500Y-55687500D03*
X97442500Y-56637500D03*
X99717500Y-56637500D03*
X99717500Y-54737500D03*
D10*
X197500000Y-55025000D03*
X197500000Y-52975000D03*
X162000000Y-133550000D03*
X162000000Y-131500000D03*
X197500000Y-102525000D03*
X197500000Y-100475000D03*
D11*
X197600000Y-111000000D03*
X194500000Y-111000000D03*
D13*
X191062500Y-131550000D03*
X191062500Y-133450000D03*
X192937500Y-132500000D03*
D11*
X191050000Y-80000000D03*
X187950000Y-80000000D03*
X162050000Y-49000000D03*
X158950000Y-49000000D03*
D12*
X187000000Y-114950000D03*
X187000000Y-118050000D03*
D13*
X173062500Y-38525000D03*
X173062500Y-40425000D03*
X174937500Y-39475000D03*
D10*
X144500000Y-117050000D03*
X144500000Y-115000000D03*
D12*
X134000000Y-52950000D03*
X134000000Y-56050000D03*
D11*
X162050000Y-96500000D03*
X158950000Y-96500000D03*
X197550000Y-49000000D03*
X194450000Y-49000000D03*
X179550000Y-34475000D03*
X176450000Y-34475000D03*
X179550000Y-49000000D03*
X176450000Y-49000000D03*
D10*
X144500000Y-102525000D03*
X144500000Y-100475000D03*
D12*
X169000000Y-38425000D03*
X169000000Y-41525000D03*
D11*
X162050000Y-111000000D03*
X158950000Y-111000000D03*
D12*
X187000000Y-38425000D03*
X187000000Y-41525000D03*
D13*
X155562500Y-84050000D03*
X155562500Y-85950000D03*
X157437500Y-85000000D03*
D12*
X134000000Y-131450000D03*
X134000000Y-134550000D03*
D20*
X100030000Y-50787500D03*
X103130000Y-50787500D03*
D12*
X187000000Y-69450000D03*
X187000000Y-72550000D03*
D15*
X89280000Y-54737500D03*
X89280000Y-56637500D03*
D13*
X173125000Y-146050000D03*
X173125000Y-147950000D03*
X175000000Y-147000000D03*
X173000000Y-84000000D03*
X173000000Y-85900000D03*
X174875000Y-84950000D03*
D21*
X91042500Y-79687500D03*
X93117500Y-79687500D03*
D13*
X191125000Y-53050000D03*
X191125000Y-54950000D03*
X193000000Y-54000000D03*
D11*
X162050000Y-80000000D03*
X158950000Y-80000000D03*
D10*
X197500000Y-148025000D03*
X197500000Y-145975000D03*
D13*
X138062500Y-146050000D03*
X138062500Y-147950000D03*
X139937500Y-147000000D03*
D22*
X121237500Y-81200000D03*
X119162500Y-81200000D03*
D19*
X91442500Y-65737500D03*
X91442500Y-66687500D03*
X91442500Y-67637500D03*
X93717500Y-67637500D03*
X93717500Y-66687500D03*
X93717500Y-65737500D03*
D11*
X191050000Y-142000000D03*
X187950000Y-142000000D03*
D13*
X138062500Y-131550000D03*
X138062500Y-133450000D03*
X139937500Y-132500000D03*
X191062500Y-100550000D03*
X191062500Y-102450000D03*
X192937500Y-101500000D03*
D12*
X187000000Y-52950000D03*
X187000000Y-56050000D03*
D10*
X162000000Y-55025000D03*
X162000000Y-52975000D03*
D15*
X103180000Y-54737500D03*
X103180000Y-56637500D03*
D11*
X144550000Y-49000000D03*
X141450000Y-49000000D03*
D22*
X106637500Y-64900000D03*
X104562500Y-64900000D03*
D11*
X155550000Y-111000000D03*
X152450000Y-111000000D03*
D10*
X144500000Y-148025000D03*
X144500000Y-145975000D03*
D15*
X92980000Y-54737500D03*
X92980000Y-56637500D03*
D12*
X187000000Y-100450000D03*
X187000000Y-103550000D03*
D10*
X162000000Y-148025000D03*
X162000000Y-145975000D03*
D13*
X155562500Y-115050000D03*
X155562500Y-116950000D03*
X157437500Y-116000000D03*
D11*
X162050000Y-65500000D03*
X158950000Y-65500000D03*
X162050000Y-142000000D03*
X158950000Y-142000000D03*
D21*
X91042500Y-84687500D03*
X93117500Y-84687500D03*
D11*
X155550000Y-142000000D03*
X152450000Y-142000000D03*
D13*
X138062500Y-100550000D03*
X138062500Y-102450000D03*
X139937500Y-101500000D03*
D10*
X179500000Y-40500000D03*
X179500000Y-38450000D03*
D11*
X173050000Y-80000000D03*
X169950000Y-80000000D03*
X138050000Y-111000000D03*
X134950000Y-111000000D03*
X144550000Y-111000000D03*
X141450000Y-111000000D03*
X138050000Y-80000000D03*
X134950000Y-80000000D03*
X162050000Y-127500000D03*
X158950000Y-127500000D03*
D23*
X94955000Y-50787500D03*
X97005000Y-50787500D03*
D11*
X197550000Y-34475000D03*
X194450000Y-34475000D03*
M02*
