G04 #@! TF.GenerationSoftware,KiCad,Pcbnew,7.0.6*
G04 #@! TF.CreationDate,2024-04-22T15:15:48+03:00*
G04 #@! TF.ProjectId,sensor_current_stand,73656e73-6f72-45f6-9375-7272656e745f,rev?*
G04 #@! TF.SameCoordinates,Original*
G04 #@! TF.FileFunction,Soldermask,Top*
G04 #@! TF.FilePolarity,Negative*
%FSLAX46Y46*%
G04 Gerber Fmt 4.6, Leading zero omitted, Abs format (unit mm)*
G04 Created by KiCad (PCBNEW 7.0.6) date 2024-04-22 15:15:48*
%MOMM*%
%LPD*%
G01*
G04 APERTURE LIST*
G04 Aperture macros list*
%AMRoundRect*
0 Rectangle with rounded corners*
0 $1 Rounding radius*
0 $2 $3 $4 $5 $6 $7 $8 $9 X,Y pos of 4 corners*
0 Add a 4 corners polygon primitive as box body*
4,1,4,$2,$3,$4,$5,$6,$7,$8,$9,$2,$3,0*
0 Add four circle primitives for the rounded corners*
1,1,$1+$1,$2,$3*
1,1,$1+$1,$4,$5*
1,1,$1+$1,$6,$7*
1,1,$1+$1,$8,$9*
0 Add four rect primitives between the rounded corners*
20,1,$1+$1,$2,$3,$4,$5,0*
20,1,$1+$1,$4,$5,$6,$7,0*
20,1,$1+$1,$6,$7,$8,$9,0*
20,1,$1+$1,$8,$9,$2,$3,0*%
G04 Aperture macros list end*
%ADD10RoundRect,0.250000X0.250000X0.475000X-0.250000X0.475000X-0.250000X-0.475000X0.250000X-0.475000X0*%
%ADD11RoundRect,0.250000X-0.475000X0.250000X-0.475000X-0.250000X0.475000X-0.250000X0.475000X0.250000X0*%
%ADD12RoundRect,0.250000X0.337500X0.475000X-0.337500X0.475000X-0.337500X-0.475000X0.337500X-0.475000X0*%
%ADD13C,4.700000*%
%ADD14C,8.600000*%
%ADD15C,4.000000*%
%ADD16R,1.600000X1.600000*%
%ADD17C,1.600000*%
%ADD18RoundRect,0.150000X0.150000X-0.587500X0.150000X0.587500X-0.150000X0.587500X-0.150000X-0.587500X0*%
%ADD19RoundRect,0.112500X0.187500X0.112500X-0.187500X0.112500X-0.187500X-0.112500X0.187500X-0.112500X0*%
%ADD20RoundRect,0.250000X-0.400000X-0.625000X0.400000X-0.625000X0.400000X0.625000X-0.400000X0.625000X0*%
%ADD21RoundRect,0.250000X0.450000X-0.325000X0.450000X0.325000X-0.450000X0.325000X-0.450000X-0.325000X0*%
%ADD22RoundRect,0.150000X-0.512500X-0.150000X0.512500X-0.150000X0.512500X0.150000X-0.512500X0.150000X0*%
%ADD23RoundRect,0.250000X-0.325000X-0.450000X0.325000X-0.450000X0.325000X0.450000X-0.325000X0.450000X0*%
%ADD24C,3.000000*%
%ADD25R,3.000000X3.000000*%
%ADD26RoundRect,0.100000X-0.637500X-0.100000X0.637500X-0.100000X0.637500X0.100000X-0.637500X0.100000X0*%
%ADD27RoundRect,0.250000X0.475000X-0.337500X0.475000X0.337500X-0.475000X0.337500X-0.475000X-0.337500X0*%
%ADD28RoundRect,0.250000X0.400000X0.625000X-0.400000X0.625000X-0.400000X-0.625000X0.400000X-0.625000X0*%
%ADD29RoundRect,0.250000X0.625000X-0.400000X0.625000X0.400000X-0.625000X0.400000X-0.625000X-0.400000X0*%
%ADD30C,1.500000*%
%ADD31RoundRect,0.250000X-0.600000X0.600000X-0.600000X-0.600000X0.600000X-0.600000X0.600000X0.600000X0*%
%ADD32C,1.700000*%
%ADD33RoundRect,0.250000X-0.475000X0.337500X-0.475000X-0.337500X0.475000X-0.337500X0.475000X0.337500X0*%
%ADD34RoundRect,0.075000X-0.700000X-0.075000X0.700000X-0.075000X0.700000X0.075000X-0.700000X0.075000X0*%
%ADD35RoundRect,0.075000X-0.075000X-0.700000X0.075000X-0.700000X0.075000X0.700000X-0.075000X0.700000X0*%
G04 APERTURE END LIST*
D10*
X194650000Y-129400000D03*
X192750000Y-129400000D03*
X163350000Y-129500000D03*
X161450000Y-129500000D03*
X163150000Y-145100000D03*
X161250000Y-145100000D03*
X178450000Y-129400000D03*
X176550000Y-129400000D03*
X194450000Y-145100000D03*
X192550000Y-145100000D03*
X147950000Y-129400000D03*
X146050000Y-129400000D03*
X147650000Y-144800000D03*
X145750000Y-144800000D03*
X163350000Y-114100000D03*
X161450000Y-114100000D03*
X178575000Y-98400000D03*
X176675000Y-98400000D03*
X194850000Y-98500000D03*
X192950000Y-98500000D03*
X147950000Y-98425000D03*
X146050000Y-98425000D03*
X194650000Y-114100000D03*
X192750000Y-114100000D03*
X163550000Y-98600000D03*
X161650000Y-98600000D03*
X178650000Y-114100000D03*
X176750000Y-114100000D03*
X147750000Y-113800000D03*
X145850000Y-113800000D03*
X178433332Y-67400000D03*
X176533332Y-67400000D03*
X147950000Y-67400000D03*
X146050000Y-67400000D03*
X163366666Y-67500000D03*
X161466666Y-67500000D03*
X147800000Y-82800000D03*
X145900000Y-82800000D03*
X163166666Y-83050000D03*
X161266666Y-83050000D03*
X194450000Y-83050000D03*
X192550000Y-83050000D03*
X178533332Y-83050000D03*
X176633332Y-83050000D03*
X194675000Y-67400000D03*
X192775000Y-67400000D03*
X194775000Y-51825000D03*
X192875000Y-51825000D03*
X179008332Y-51825000D03*
X177108332Y-51825000D03*
X163541666Y-51825000D03*
X161641666Y-51825000D03*
X147775000Y-51825000D03*
X145875000Y-51825000D03*
X194525000Y-36455000D03*
X192625000Y-36455000D03*
X179008332Y-36455000D03*
X177108332Y-36455000D03*
X163541666Y-36455000D03*
X161641666Y-36455000D03*
X148150000Y-36455000D03*
X146250000Y-36455000D03*
X79257842Y-93982842D03*
X77357842Y-93982842D03*
D11*
X93400000Y-101350000D03*
X93400000Y-103250000D03*
X89617158Y-101392158D03*
X89617158Y-103292158D03*
X85700000Y-101050000D03*
X85700000Y-102950000D03*
D10*
X79257842Y-99682842D03*
X77357842Y-99682842D03*
X79342157Y-77382842D03*
X77442157Y-77382842D03*
D11*
X93667157Y-84732842D03*
X93667157Y-86632842D03*
X89667157Y-84732842D03*
X89667157Y-86632842D03*
X85767157Y-84657842D03*
X85767157Y-86557842D03*
D10*
X79342157Y-83282842D03*
X77442157Y-83282842D03*
X80850000Y-39282842D03*
X78950000Y-39282842D03*
X178550000Y-145100000D03*
X176650000Y-145100000D03*
D12*
X105837500Y-69200000D03*
X103762500Y-69200000D03*
D13*
X56500000Y-151200000D03*
D14*
X56500000Y-151200000D03*
X270000000Y-151200000D03*
D13*
X270000000Y-151200000D03*
D14*
X270000000Y-36400000D03*
D13*
X270000000Y-36400000D03*
D14*
X56500000Y-36400000D03*
D13*
X56500000Y-36400000D03*
D15*
X269200000Y-140050000D03*
X205700000Y-140050000D03*
D16*
X212520000Y-138630000D03*
D17*
X215290000Y-138630000D03*
X218060000Y-138630000D03*
X220830000Y-138630000D03*
X223600000Y-138630000D03*
X226370000Y-138630000D03*
X229140000Y-138630000D03*
X231910000Y-138630000D03*
X234680000Y-138630000D03*
X237450000Y-138630000D03*
X240220000Y-138630000D03*
X242990000Y-138630000D03*
X245760000Y-138630000D03*
X248530000Y-138630000D03*
X251300000Y-138630000D03*
X254070000Y-138630000D03*
X256840000Y-138630000D03*
X259610000Y-138630000D03*
X262380000Y-138630000D03*
X213905000Y-141470000D03*
X216675000Y-141470000D03*
X219445000Y-141470000D03*
X222215000Y-141470000D03*
X224985000Y-141470000D03*
X227755000Y-141470000D03*
X230525000Y-141470000D03*
X233295000Y-141470000D03*
X236065000Y-141470000D03*
X238835000Y-141470000D03*
X241605000Y-141470000D03*
X244375000Y-141470000D03*
X247145000Y-141470000D03*
X249915000Y-141470000D03*
X252685000Y-141470000D03*
X255455000Y-141470000D03*
X258225000Y-141470000D03*
X260995000Y-141470000D03*
D15*
X269200000Y-47080000D03*
X205700000Y-47080000D03*
D16*
X212520000Y-45660000D03*
D17*
X215290000Y-45660000D03*
X218060000Y-45660000D03*
X220830000Y-45660000D03*
X223600000Y-45660000D03*
X226370000Y-45660000D03*
X229140000Y-45660000D03*
X231910000Y-45660000D03*
X234680000Y-45660000D03*
X237450000Y-45660000D03*
X240220000Y-45660000D03*
X242990000Y-45660000D03*
X245760000Y-45660000D03*
X248530000Y-45660000D03*
X251300000Y-45660000D03*
X254070000Y-45660000D03*
X256840000Y-45660000D03*
X259610000Y-45660000D03*
X262380000Y-45660000D03*
X213905000Y-48500000D03*
X216675000Y-48500000D03*
X219445000Y-48500000D03*
X222215000Y-48500000D03*
X224985000Y-48500000D03*
X227755000Y-48500000D03*
X230525000Y-48500000D03*
X233295000Y-48500000D03*
X236065000Y-48500000D03*
X238835000Y-48500000D03*
X241605000Y-48500000D03*
X244375000Y-48500000D03*
X247145000Y-48500000D03*
X249915000Y-48500000D03*
X252685000Y-48500000D03*
X255455000Y-48500000D03*
X258225000Y-48500000D03*
X260995000Y-48500000D03*
X260995000Y-79520000D03*
X258225000Y-79520000D03*
X255455000Y-79520000D03*
X252685000Y-79520000D03*
X249915000Y-79520000D03*
X247145000Y-79520000D03*
X244375000Y-79520000D03*
X241605000Y-79520000D03*
X238835000Y-79520000D03*
X236065000Y-79520000D03*
X233295000Y-79520000D03*
X230525000Y-79520000D03*
X227755000Y-79520000D03*
X224985000Y-79520000D03*
X222215000Y-79520000D03*
X219445000Y-79520000D03*
X216675000Y-79520000D03*
X213905000Y-79520000D03*
X262380000Y-76680000D03*
X259610000Y-76680000D03*
X256840000Y-76680000D03*
X254070000Y-76680000D03*
X251300000Y-76680000D03*
X248530000Y-76680000D03*
X245760000Y-76680000D03*
X242990000Y-76680000D03*
X240220000Y-76680000D03*
X237450000Y-76680000D03*
X234680000Y-76680000D03*
X231910000Y-76680000D03*
X229140000Y-76680000D03*
X226370000Y-76680000D03*
X223600000Y-76680000D03*
X220830000Y-76680000D03*
X218060000Y-76680000D03*
X215290000Y-76680000D03*
D16*
X212520000Y-76680000D03*
D15*
X205700000Y-78100000D03*
X269200000Y-78100000D03*
X269200000Y-109050000D03*
X205700000Y-109050000D03*
D16*
X212520000Y-107630000D03*
D17*
X215290000Y-107630000D03*
X218060000Y-107630000D03*
X220830000Y-107630000D03*
X223600000Y-107630000D03*
X226370000Y-107630000D03*
X229140000Y-107630000D03*
X231910000Y-107630000D03*
X234680000Y-107630000D03*
X237450000Y-107630000D03*
X240220000Y-107630000D03*
X242990000Y-107630000D03*
X245760000Y-107630000D03*
X248530000Y-107630000D03*
X251300000Y-107630000D03*
X254070000Y-107630000D03*
X256840000Y-107630000D03*
X259610000Y-107630000D03*
X262380000Y-107630000D03*
X213905000Y-110470000D03*
X216675000Y-110470000D03*
X219445000Y-110470000D03*
X222215000Y-110470000D03*
X224985000Y-110470000D03*
X227755000Y-110470000D03*
X230525000Y-110470000D03*
X233295000Y-110470000D03*
X236065000Y-110470000D03*
X238835000Y-110470000D03*
X241605000Y-110470000D03*
X244375000Y-110470000D03*
X247145000Y-110470000D03*
X249915000Y-110470000D03*
X252685000Y-110470000D03*
X255455000Y-110470000D03*
X258225000Y-110470000D03*
X260995000Y-110470000D03*
D18*
X158246666Y-73197500D03*
X160146666Y-73197500D03*
X159196666Y-71322500D03*
D19*
X90182842Y-96132842D03*
X92282842Y-96132842D03*
D20*
X169833332Y-36425000D03*
X172933332Y-36425000D03*
X154850000Y-98600000D03*
X157950000Y-98600000D03*
X154496666Y-51725000D03*
X157596666Y-51725000D03*
D21*
X170000000Y-104125000D03*
X170000000Y-102075000D03*
X169600000Y-150925000D03*
X169600000Y-148875000D03*
D18*
X189375000Y-57637500D03*
X191275000Y-57637500D03*
X190325000Y-55762500D03*
X189450000Y-119737500D03*
X191350000Y-119737500D03*
X190400000Y-117862500D03*
X158341666Y-42200000D03*
X160241666Y-42200000D03*
X159291666Y-40325000D03*
X158441666Y-57637500D03*
X160341666Y-57637500D03*
X159391666Y-55762500D03*
D22*
X85682842Y-95932842D03*
X85682842Y-97832842D03*
X83407842Y-97832842D03*
X83407842Y-96882842D03*
X83407842Y-95932842D03*
D18*
X142650000Y-119537500D03*
X144550000Y-119537500D03*
X143600000Y-117662500D03*
D20*
X185750000Y-114100000D03*
X188850000Y-114100000D03*
X92132842Y-91882842D03*
X89032842Y-91882842D03*
X154566666Y-67500000D03*
X157666666Y-67500000D03*
D18*
X158300000Y-135100000D03*
X160200000Y-135100000D03*
X159250000Y-133225000D03*
X189150000Y-42200000D03*
X191050000Y-42200000D03*
X190100000Y-40325000D03*
X189350000Y-135037500D03*
X191250000Y-135037500D03*
X190300000Y-133162500D03*
D21*
X185900000Y-104025000D03*
X185900000Y-101975000D03*
D18*
X142685000Y-88532500D03*
X144585000Y-88532500D03*
X143635000Y-86657500D03*
D21*
X139125000Y-88725000D03*
X139125000Y-86675000D03*
X138800000Y-150425000D03*
X138800000Y-148375000D03*
X169683332Y-88775000D03*
X169683332Y-86725000D03*
D23*
X85907842Y-91882842D03*
X83857842Y-91882842D03*
D24*
X106772500Y-151700000D03*
D25*
X102892500Y-151700000D03*
D20*
X139250000Y-129400000D03*
X142350000Y-129400000D03*
X169733332Y-67400000D03*
X172833332Y-67400000D03*
D18*
X189250000Y-150637500D03*
X191150000Y-150637500D03*
X190200000Y-148762500D03*
D21*
X139300000Y-104150000D03*
X139300000Y-102100000D03*
X185625000Y-57750000D03*
X185625000Y-55700000D03*
D20*
X154441666Y-36425000D03*
X157541666Y-36425000D03*
D26*
X125088541Y-106350000D03*
X125088541Y-107000000D03*
X125088541Y-107650000D03*
X125088541Y-108300000D03*
X125088541Y-108950000D03*
X125088541Y-109600000D03*
X125088541Y-110250000D03*
X125088541Y-110900000D03*
X130813541Y-110900000D03*
X130813541Y-110250000D03*
X130813541Y-109600000D03*
X130813541Y-108950000D03*
X130813541Y-108300000D03*
X130813541Y-107650000D03*
X130813541Y-107000000D03*
X130813541Y-106350000D03*
D18*
X173500000Y-104000000D03*
X175400000Y-104000000D03*
X174450000Y-102125000D03*
X142450000Y-150437500D03*
X144350000Y-150437500D03*
X143400000Y-148562500D03*
X173450000Y-119637500D03*
X175350000Y-119637500D03*
X174400000Y-117762500D03*
X173633332Y-42200000D03*
X175533332Y-42200000D03*
X174583332Y-40325000D03*
X173350000Y-135037500D03*
X175250000Y-135037500D03*
X174300000Y-133162500D03*
X158066666Y-88725000D03*
X159966666Y-88725000D03*
X159016666Y-86850000D03*
D21*
X154900000Y-104125000D03*
X154900000Y-102075000D03*
D20*
X154650000Y-114200000D03*
X157750000Y-114200000D03*
D18*
X189550000Y-103937500D03*
X191450000Y-103937500D03*
X190500000Y-102062500D03*
D27*
X83982842Y-66920342D03*
X83982842Y-64845342D03*
D20*
X116401041Y-47700000D03*
X119501041Y-47700000D03*
X169650000Y-145100000D03*
X172750000Y-145100000D03*
D27*
X75417157Y-61957842D03*
X75417157Y-59882842D03*
D21*
X154500000Y-135125000D03*
X154500000Y-133075000D03*
D20*
X169950000Y-98500000D03*
X173050000Y-98500000D03*
D18*
X142600000Y-57637500D03*
X144500000Y-57637500D03*
X143550000Y-55762500D03*
D20*
X154550000Y-129500000D03*
X157650000Y-129500000D03*
D18*
X142800000Y-72782500D03*
X144700000Y-72782500D03*
X143750000Y-70907500D03*
D28*
X96417157Y-48682842D03*
X93317157Y-48682842D03*
D18*
X173708332Y-57637500D03*
X175608332Y-57637500D03*
X174658332Y-55762500D03*
D22*
X79792157Y-42932842D03*
X79792157Y-43882842D03*
X79792157Y-44832842D03*
X82067157Y-44832842D03*
X82067157Y-43882842D03*
X82067157Y-42932842D03*
D21*
X169783332Y-73425000D03*
X169783332Y-71375000D03*
D20*
X169813332Y-51825000D03*
X172913332Y-51825000D03*
D21*
X154700000Y-119825000D03*
X154700000Y-117775000D03*
X185700000Y-135025000D03*
X185700000Y-132975000D03*
X154491666Y-42350000D03*
X154491666Y-40300000D03*
D18*
X142947500Y-104062500D03*
X144847500Y-104062500D03*
X143897500Y-102187500D03*
D20*
X139050000Y-113900000D03*
X142150000Y-113900000D03*
D19*
X92367157Y-79582842D03*
X90267157Y-79582842D03*
D18*
X173313332Y-73177500D03*
X175213332Y-73177500D03*
X174263332Y-71302500D03*
D21*
X139300000Y-72825000D03*
X139300000Y-70775000D03*
X154516666Y-88875000D03*
X154516666Y-86825000D03*
D18*
X158250000Y-119675000D03*
X160150000Y-119675000D03*
X159200000Y-117800000D03*
D21*
X169800000Y-119725000D03*
X169800000Y-117675000D03*
D29*
X87867157Y-67882842D03*
X87867157Y-64782842D03*
D30*
X81017157Y-59300342D03*
X81017157Y-54420342D03*
D26*
X125088541Y-137025000D03*
X125088541Y-137675000D03*
X125088541Y-138325000D03*
X125088541Y-138975000D03*
X125088541Y-139625000D03*
X125088541Y-140275000D03*
X125088541Y-140925000D03*
X125088541Y-141575000D03*
X130813541Y-141575000D03*
X130813541Y-140925000D03*
X130813541Y-140275000D03*
X130813541Y-139625000D03*
X130813541Y-138975000D03*
X130813541Y-138325000D03*
X130813541Y-137675000D03*
X130813541Y-137025000D03*
D21*
X138850000Y-57750000D03*
X138850000Y-55700000D03*
D20*
X185550000Y-83050000D03*
X188650000Y-83050000D03*
X169633332Y-83050000D03*
X172733332Y-83050000D03*
D21*
X185600000Y-150625000D03*
X185600000Y-148575000D03*
D20*
X185530000Y-51725000D03*
X188630000Y-51725000D03*
X116401041Y-109600000D03*
X119501041Y-109600000D03*
X139250000Y-67400000D03*
X142350000Y-67400000D03*
D21*
X185600000Y-73050000D03*
X185600000Y-71000000D03*
D28*
X89367157Y-54582842D03*
X86267157Y-54582842D03*
D20*
X185300000Y-36425000D03*
X188400000Y-36425000D03*
D21*
X154500000Y-150825000D03*
X154500000Y-148775000D03*
D18*
X189350000Y-73037500D03*
X191250000Y-73037500D03*
X190300000Y-71162500D03*
X158450000Y-103975000D03*
X160350000Y-103975000D03*
X159400000Y-102100000D03*
D20*
X185600000Y-67400000D03*
X188700000Y-67400000D03*
X154466666Y-83050000D03*
X157566666Y-83050000D03*
X138800000Y-51825000D03*
X141900000Y-51825000D03*
D31*
X106000000Y-37460000D03*
D32*
X106000000Y-40000000D03*
X103460000Y-37460000D03*
X103460000Y-40000000D03*
X100920000Y-37460000D03*
X100920000Y-40000000D03*
X98380000Y-37460000D03*
X98380000Y-40000000D03*
X95840000Y-37460000D03*
X95840000Y-40000000D03*
D21*
X185400000Y-42312500D03*
X185400000Y-40262500D03*
X154616666Y-73225000D03*
X154616666Y-71175000D03*
D18*
X142850000Y-42200000D03*
X144750000Y-42200000D03*
X143800000Y-40325000D03*
D21*
X169908332Y-57750000D03*
X169908332Y-55700000D03*
D26*
X125088541Y-75200000D03*
X125088541Y-75850000D03*
X125088541Y-76500000D03*
X125088541Y-77150000D03*
X125088541Y-77800000D03*
X125088541Y-78450000D03*
X125088541Y-79100000D03*
X125088541Y-79750000D03*
X130813541Y-79750000D03*
X130813541Y-79100000D03*
X130813541Y-78450000D03*
X130813541Y-77800000D03*
X130813541Y-77150000D03*
X130813541Y-76500000D03*
X130813541Y-75850000D03*
X130813541Y-75200000D03*
D21*
X185800000Y-119725000D03*
X185800000Y-117675000D03*
X185600000Y-88850000D03*
X185600000Y-86800000D03*
D20*
X185550000Y-145100000D03*
X188650000Y-145100000D03*
X116401041Y-140300000D03*
X119501041Y-140300000D03*
D26*
X125088541Y-44425000D03*
X125088541Y-45075000D03*
X125088541Y-45725000D03*
X125088541Y-46375000D03*
X125088541Y-47025000D03*
X125088541Y-47675000D03*
X125088541Y-48325000D03*
X125088541Y-48975000D03*
X130813541Y-48975000D03*
X130813541Y-48325000D03*
X130813541Y-47675000D03*
X130813541Y-47025000D03*
X130813541Y-46375000D03*
X130813541Y-45725000D03*
X130813541Y-45075000D03*
X130813541Y-44425000D03*
D22*
X83492157Y-79382842D03*
X83492157Y-80332842D03*
X83492157Y-81282842D03*
X85767157Y-81282842D03*
X85767157Y-79382842D03*
D21*
X169833332Y-42312500D03*
X169833332Y-40262500D03*
D24*
X94072500Y-151700000D03*
D25*
X90192500Y-151700000D03*
D18*
X173273332Y-88712500D03*
X175173332Y-88712500D03*
X174223332Y-86837500D03*
D28*
X89367157Y-59382842D03*
X86267157Y-59382842D03*
D21*
X139100000Y-42387500D03*
X139100000Y-40337500D03*
X169800000Y-135025000D03*
X169800000Y-132975000D03*
D20*
X185650000Y-129400000D03*
X188750000Y-129400000D03*
D21*
X139200000Y-135025000D03*
X139200000Y-132975000D03*
D33*
X75417157Y-51742842D03*
X75417157Y-53817842D03*
D34*
X93892157Y-54732842D03*
X93892157Y-55232842D03*
X93892157Y-55732842D03*
X93892157Y-56232842D03*
X93892157Y-56732842D03*
X93892157Y-57232842D03*
X93892157Y-57732842D03*
X93892157Y-58232842D03*
X93892157Y-58732842D03*
X93892157Y-59232842D03*
X93892157Y-59732842D03*
X93892157Y-60232842D03*
X93892157Y-60732842D03*
X93892157Y-61232842D03*
X93892157Y-61732842D03*
X93892157Y-62232842D03*
D35*
X95817157Y-64157842D03*
X96317157Y-64157842D03*
X96817157Y-64157842D03*
X97317157Y-64157842D03*
X97817157Y-64157842D03*
X98317157Y-64157842D03*
X98817157Y-64157842D03*
X99317157Y-64157842D03*
X99817157Y-64157842D03*
X100317157Y-64157842D03*
X100817157Y-64157842D03*
X101317157Y-64157842D03*
X101817157Y-64157842D03*
X102317157Y-64157842D03*
X102817157Y-64157842D03*
X103317157Y-64157842D03*
D34*
X105242157Y-62232842D03*
X105242157Y-61732842D03*
X105242157Y-61232842D03*
X105242157Y-60732842D03*
X105242157Y-60232842D03*
X105242157Y-59732842D03*
X105242157Y-59232842D03*
X105242157Y-58732842D03*
X105242157Y-58232842D03*
X105242157Y-57732842D03*
X105242157Y-57232842D03*
X105242157Y-56732842D03*
X105242157Y-56232842D03*
X105242157Y-55732842D03*
X105242157Y-55232842D03*
X105242157Y-54732842D03*
D35*
X103317157Y-52807842D03*
X102817157Y-52807842D03*
X102317157Y-52807842D03*
X101817157Y-52807842D03*
X101317157Y-52807842D03*
X100817157Y-52807842D03*
X100317157Y-52807842D03*
X99817157Y-52807842D03*
X99317157Y-52807842D03*
X98817157Y-52807842D03*
X98317157Y-52807842D03*
X97817157Y-52807842D03*
X97317157Y-52807842D03*
X96817157Y-52807842D03*
X96317157Y-52807842D03*
X95817157Y-52807842D03*
D18*
X158100000Y-150700000D03*
X160000000Y-150700000D03*
X159050000Y-148825000D03*
D16*
X66687500Y-49350000D03*
D17*
X66687500Y-46850000D03*
X64687500Y-46850000D03*
X64687500Y-49350000D03*
D15*
X61827500Y-54100000D03*
X61827500Y-42100000D03*
D20*
X154450000Y-145100000D03*
X157550000Y-145100000D03*
D18*
X142800000Y-134800000D03*
X144700000Y-134800000D03*
X143750000Y-132925000D03*
D21*
X139000000Y-119625000D03*
X139000000Y-117575000D03*
X154591666Y-57750000D03*
X154591666Y-55700000D03*
D20*
X116401041Y-78400000D03*
X119501041Y-78400000D03*
X139100000Y-36425000D03*
X142200000Y-36425000D03*
X169750000Y-129400000D03*
X172850000Y-129400000D03*
X138850000Y-144800000D03*
X141950000Y-144800000D03*
X89117157Y-75232842D03*
X92217157Y-75232842D03*
X139350000Y-98425000D03*
X142450000Y-98425000D03*
D18*
X189250000Y-88725000D03*
X191150000Y-88725000D03*
X190200000Y-86850000D03*
D20*
X185850000Y-98500000D03*
X188950000Y-98500000D03*
X169850000Y-114200000D03*
X172950000Y-114200000D03*
X139075000Y-82800000D03*
X142175000Y-82800000D03*
D18*
X173250000Y-150637500D03*
X175150000Y-150637500D03*
X174200000Y-148762500D03*
D23*
X83942157Y-75232842D03*
X85992157Y-75232842D03*
M02*
