G04*
G04 #@! TF.GenerationSoftware,Altium Limited,Altium Designer,22.10.1 (41)*
G04*
G04 Layer_Color=8421504*
%FSTAX44Y44*%
%MOMM*%
G71*
G04*
G04 #@! TF.SameCoordinates,24A3EEB5-F367-497A-A3BB-2F848839041C*
G04*
G04*
G04 #@! TF.FilePolarity,Positive*
G04*
G01*
G75*
G04:AMPARAMS|DCode=14|XSize=1.25mm|YSize=0.9mm|CornerRadius=0.1125mm|HoleSize=0mm|Usage=FLASHONLY|Rotation=90.000|XOffset=0mm|YOffset=0mm|HoleType=Round|Shape=RoundedRectangle|*
%AMROUNDEDRECTD14*
21,1,1.2500,0.6750,0,0,90.0*
21,1,1.0250,0.9000,0,0,90.0*
1,1,0.2250,0.3375,0.5125*
1,1,0.2250,0.3375,-0.5125*
1,1,0.2250,-0.3375,-0.5125*
1,1,0.2250,-0.3375,0.5125*
%
%ADD14ROUNDEDRECTD14*%
G04:AMPARAMS|DCode=15|XSize=1.5mm|YSize=1mm|CornerRadius=0.125mm|HoleSize=0mm|Usage=FLASHONLY|Rotation=270.000|XOffset=0mm|YOffset=0mm|HoleType=Round|Shape=RoundedRectangle|*
%AMROUNDEDRECTD15*
21,1,1.5000,0.7500,0,0,270.0*
21,1,1.2500,1.0000,0,0,270.0*
1,1,0.2500,-0.3750,-0.6250*
1,1,0.2500,-0.3750,0.6250*
1,1,0.2500,0.3750,0.6250*
1,1,0.2500,0.3750,-0.6250*
%
%ADD15ROUNDEDRECTD15*%
D14*
X01756Y02261D02*
D03*
X01736D02*
D03*
X01856D02*
D03*
X01836D02*
D03*
X01956D02*
D03*
X01936D02*
D03*
X01556D02*
D03*
X01536D02*
D03*
X01256D02*
D03*
X01236D02*
D03*
X01356D02*
D03*
X01336D02*
D03*
X01456D02*
D03*
X01436D02*
D03*
X01656D02*
D03*
X01636D02*
D03*
X01156D02*
D03*
X01136D02*
D03*
X00556D02*
D03*
X00536D02*
D03*
X00456D02*
D03*
X00436D02*
D03*
X01056D02*
D03*
X01036D02*
D03*
X00656D02*
D03*
X00636D02*
D03*
X00356D02*
D03*
X00336D02*
D03*
X00856D02*
D03*
X00836D02*
D03*
X00756D02*
D03*
X00736D02*
D03*
X00236Y02696D02*
D03*
X00256D02*
D03*
X00236Y02478D02*
D03*
X00256D02*
D03*
X00236Y02261D02*
D03*
X00256D02*
D03*
X00736Y02044D02*
D03*
X00756D02*
D03*
X00236D02*
D03*
X00256D02*
D03*
X00336Y02696D02*
D03*
X00356D02*
D03*
X00336Y02478D02*
D03*
X00356D02*
D03*
X00836Y02044D02*
D03*
X00856D02*
D03*
X00336D02*
D03*
X00356D02*
D03*
X00436Y02696D02*
D03*
X00456D02*
D03*
X00436Y02478D02*
D03*
X00456D02*
D03*
X00936Y02044D02*
D03*
X00956D02*
D03*
X00436D02*
D03*
X00456D02*
D03*
X00536Y02696D02*
D03*
X00556D02*
D03*
X00536Y02478D02*
D03*
X00556D02*
D03*
X01036Y02044D02*
D03*
X01056D02*
D03*
X00536D02*
D03*
X00556D02*
D03*
X00636Y02696D02*
D03*
X00656D02*
D03*
X00636Y02478D02*
D03*
X00656D02*
D03*
X01136Y02044D02*
D03*
X01156D02*
D03*
X00636D02*
D03*
X00656D02*
D03*
X00736Y02696D02*
D03*
X00756D02*
D03*
X00736Y02478D02*
D03*
X00756D02*
D03*
X00836Y02696D02*
D03*
X00856D02*
D03*
X00836Y02478D02*
D03*
X00856D02*
D03*
X00936Y02696D02*
D03*
X00956D02*
D03*
X00936Y02478D02*
D03*
X00956D02*
D03*
X00936Y02261D02*
D03*
X00956D02*
D03*
X01036Y02696D02*
D03*
X01056D02*
D03*
X01036Y02478D02*
D03*
X01056D02*
D03*
X01136Y02696D02*
D03*
X01156D02*
D03*
X01136Y02478D02*
D03*
X01156D02*
D03*
X01236Y02696D02*
D03*
X01256D02*
D03*
X01236Y02478D02*
D03*
X01256D02*
D03*
X01336Y02696D02*
D03*
X01356D02*
D03*
X01336Y02478D02*
D03*
X01356D02*
D03*
X01436Y02696D02*
D03*
X01456D02*
D03*
X01436Y02478D02*
D03*
X01456D02*
D03*
X01536Y02696D02*
D03*
X01556D02*
D03*
X01536Y02478D02*
D03*
X01556D02*
D03*
X01636Y02696D02*
D03*
X01656D02*
D03*
X01636Y02478D02*
D03*
X01656D02*
D03*
X01736Y02696D02*
D03*
X01756D02*
D03*
X01736Y02478D02*
D03*
X01756D02*
D03*
X01736Y02044D02*
D03*
X01756D02*
D03*
X01236D02*
D03*
X01256D02*
D03*
X01836Y02696D02*
D03*
X01856D02*
D03*
X01836Y02478D02*
D03*
X01856D02*
D03*
X01836Y02044D02*
D03*
X01856D02*
D03*
X01336D02*
D03*
X01356D02*
D03*
X01936Y02696D02*
D03*
X01956D02*
D03*
X01936Y02478D02*
D03*
X01956D02*
D03*
X01936Y02044D02*
D03*
X01956D02*
D03*
X01436D02*
D03*
X01456D02*
D03*
X01536D02*
D03*
X01556D02*
D03*
X01636D02*
D03*
X01656D02*
D03*
D15*
X01553Y02282D02*
D03*
X01533D02*
D03*
X01253D02*
D03*
X01233D02*
D03*
X01353D02*
D03*
X01333D02*
D03*
X01653D02*
D03*
X01633D02*
D03*
X00234Y02717D02*
D03*
X00254D02*
D03*
X00233Y02499D02*
D03*
X00253D02*
D03*
X00233Y02282D02*
D03*
X00253D02*
D03*
X00734Y02065D02*
D03*
X00754D02*
D03*
X00234D02*
D03*
X00254D02*
D03*
X00334Y02717D02*
D03*
X00354D02*
D03*
X00333Y02499D02*
D03*
X00353D02*
D03*
X00333Y02282D02*
D03*
X00353D02*
D03*
X00834Y02065D02*
D03*
X00854D02*
D03*
X00334D02*
D03*
X00354D02*
D03*
X00434Y02717D02*
D03*
X00454D02*
D03*
X00433Y02499D02*
D03*
X00453D02*
D03*
X00433Y02282D02*
D03*
X00453D02*
D03*
X00934Y02065D02*
D03*
X00954D02*
D03*
X00434D02*
D03*
X00454D02*
D03*
X00534Y02717D02*
D03*
X00554D02*
D03*
X00533Y02499D02*
D03*
X00553D02*
D03*
X00533Y02282D02*
D03*
X00553D02*
D03*
X01034Y02065D02*
D03*
X01054D02*
D03*
X00534D02*
D03*
X00554D02*
D03*
X00634Y02717D02*
D03*
X00654D02*
D03*
X00633Y02499D02*
D03*
X00653D02*
D03*
X00633Y02282D02*
D03*
X00653D02*
D03*
X01134Y02065D02*
D03*
X01154D02*
D03*
X00634D02*
D03*
X00654D02*
D03*
X00734Y02717D02*
D03*
X00754D02*
D03*
X00733Y02499D02*
D03*
X00753D02*
D03*
X00733Y02282D02*
D03*
X00753D02*
D03*
X00834Y02717D02*
D03*
X00854D02*
D03*
X00833Y02499D02*
D03*
X00853D02*
D03*
X00833Y02282D02*
D03*
X00853D02*
D03*
X00934Y02717D02*
D03*
X00954D02*
D03*
X00933Y02499D02*
D03*
X00953D02*
D03*
X00933Y02282D02*
D03*
X00953D02*
D03*
X01034Y02717D02*
D03*
X01054D02*
D03*
X01033Y02499D02*
D03*
X01053D02*
D03*
X01033Y02282D02*
D03*
X01053D02*
D03*
X01134Y02717D02*
D03*
X01154D02*
D03*
X01133Y02499D02*
D03*
X01153D02*
D03*
X01133Y02282D02*
D03*
X01153D02*
D03*
X01234Y02717D02*
D03*
X01254D02*
D03*
X01233Y02499D02*
D03*
X01253D02*
D03*
X01334Y02717D02*
D03*
X01354D02*
D03*
X01333Y02499D02*
D03*
X01353D02*
D03*
X01434Y02717D02*
D03*
X01454D02*
D03*
X01433Y02499D02*
D03*
X01453D02*
D03*
X01433Y02282D02*
D03*
X01453D02*
D03*
X01534Y02717D02*
D03*
X01554D02*
D03*
X01533Y02499D02*
D03*
X01553D02*
D03*
X01634Y02717D02*
D03*
X01654D02*
D03*
X01633Y02499D02*
D03*
X01653D02*
D03*
X01734Y02717D02*
D03*
X01754D02*
D03*
X01733Y02499D02*
D03*
X01753D02*
D03*
X01733Y02282D02*
D03*
X01753D02*
D03*
X01734Y02065D02*
D03*
X01754D02*
D03*
X01234D02*
D03*
X01254D02*
D03*
X01834Y02717D02*
D03*
X01854D02*
D03*
X01833Y02499D02*
D03*
X01853D02*
D03*
X01833Y02282D02*
D03*
X01853D02*
D03*
X01834Y02065D02*
D03*
X01854D02*
D03*
X01334D02*
D03*
X01354D02*
D03*
X01934Y02717D02*
D03*
X01954D02*
D03*
X01933Y02499D02*
D03*
X01953D02*
D03*
X01933Y02282D02*
D03*
X01953D02*
D03*
X01934Y02065D02*
D03*
X01954D02*
D03*
X01434D02*
D03*
X01454D02*
D03*
X01534D02*
D03*
X01554D02*
D03*
X01634D02*
D03*
X01654D02*
D03*
M02*
