M48
;Layer_Color=24703
;FILE_FORMAT=4:4
METRIC,LZ
;TYPE=PLATED
T1F00S00C0.4000
T2F00S00C0.6000
T3F00S00C0.9000
T4F00S00C1.1680
T5F00S00C1.5000
T6F00S00C3.0000
T7F00S00C4.0000
%
T01
X00716Y00188
X00724Y0024
X00785Y00174
X00795Y00166
X00804Y00157
X00898Y00241
X0091
X00924Y00243
X00428Y00188
X00298Y00258
X00050193Y00507032
X00038Y00507
X00335Y00542
X00434Y00551
X0046Y0045
X01572Y00933
X01584Y00932
X01601
X0159Y00947
X01389Y00986
X01376Y00986086
X01366Y00986
X01354
X01305Y00899
X01245Y00917
X01248Y0094
X01231Y00941
X01213628Y00933
X01219915Y00921915
X01043Y00989
X01033
X01024139Y00997168
X01017Y01005
X0101Y01014
X00935Y00932
X00465Y00988
X00394Y00997
X00292Y01031
X00288Y00885
X0042Y0085
Y00713
X00381215Y0071311
X00372989Y0070558
X00483Y00706
X00554Y00697
X00182Y00885
X00168
X00154
X00153Y00922
X00146Y00935
X00154Y00945
X01231Y01823
X00298Y0187
X00214Y01942
X00222Y01934
X0023Y01927
X00238Y01919
X00276Y01931
X0027Y01892
X0028Y01884
X00289Y01877
X00398961Y01897921
X00399Y01908
X00407Y01915
X00436Y0193
X00806Y01929
X00814Y0192
X00822Y01912
X00833Y01911
X00974Y01903
X01048
X01556Y01971
X01567Y01968
X01577Y01964
X01656Y01956
T02
X014371Y0022465
X014591
X014811
Y0027545
X014591
X014371
X015851Y0027545
X016171
X016391
X016611
Y0022465
X016391
X016171
X015851
X014051Y0022465
Y0027545
X0130592
X0128392
X0126192
X0122992
Y0022465
X0126192
X0128392
X0130592
X0112585Y0022465
X0110385
X0108185
X0104985
Y0027545
X0108185
X0110385
X0112585
X0095725Y002754
X0093525
X0091325
X0088125
Y002246
X0091325
X0093525
X0095725
X0077725Y002246
X0075525
X0073325
X0070125
Y002754
X0073325
X0075525
X0077725
X0060207
X0058007
X0055807
X0052607
Y002246
X0055807
X0058007
X0060207
X00422Y002246
X004
X00378
X00346
Y002754
X00378
X004
X00422
Y002996
X004
X00378
X00346
Y003504
Y003746
X00378
X004
X00422
Y003504
X004
X00378
Y004254
X004
X00422
Y0045
X004
X00378
X00346
Y004254
Y005008
Y00525
X00378
X004
X00422
Y005008
X004
X00378
Y005758
X004
X00422
Y005996
X004
X00378
X00346
Y005758
Y006504
Y006746
X00378
X004
X00422
Y006504
X004
X00378
X0052607Y006504
Y006746
X0055807
X0058007
X0060207
Y006504
X0058007
X0055807
Y005996
X0058007
X0060207
Y005758
X0058007
X0055807
X0052607
Y005996
Y00525
Y005008
X0055807
X0058007
X0060207
Y00525
X0058007
X0055807
Y0045
X0058007
X0060207
Y004254
X0058007
X0055807
X0052607
Y0045
Y003746
Y003504
X0055807
X0058007
X0060207
Y003746
X0058007
X0055807
Y002996
X0058007
X0060207
X0052607
X0070125Y002996
X0073325
X0075525
X0077725
Y003504
X0075525
X0073325
X0073325Y003746
X0075525
X0077725
Y004254
X0075525
X0073325
Y0045
X0075525
X0077725
Y005008
X0075525
X0073325
Y00525
X0075525
X0077725
Y005758
X0075525
X0073325
Y005996
X0075525
X0077725
Y006504
X0075525
X0073325
Y006746
X0075525
X0077725
X0070125
Y006504
Y005996
Y005758
Y00525
Y005008
Y0045
Y004254
Y003746
X0070125Y003504
X0088125Y003504
Y003746
X0091325
X0093525
X0095725
Y003504
X0093525
X0091325
Y002996
X0093525
X0095725
X0088125
Y004254
Y0045
X0091325
X0093525
X0095725
Y004254
X0093525
X0091325
Y005008
X0093525
X0095725
Y00525
X0093525
X0091325
X0088125
Y005008
Y005758
Y005996
X0091325
X0093525
X0095725
Y005758
X0093525
X0091325
Y006504
X0093525
X0095725
Y006746
X0093525
X0091325
X0088125
Y006504
X0104985Y0065045
Y0067465
X0108185
X0110385
X0112585
Y0065045
X0110385
X0108185
Y0059965
X0110385
X0112585
Y0057585
X0110385
X0108185
X0104985
Y0059965
Y0052505
Y0050085
X0108185
X0110385
X0112585
Y0052505
X0110385
X0108185
Y0045005
X0110385
X0112585
Y0042545
X0110385
X0108185
X0104985
Y0045005
Y0037465
Y0035045
X0108185
X0110385
X0112585
Y0037465
X0110385
X0108185
Y0029965
X0110385
X0112585
X0104985
X0122992Y0029965
X0126192
X0128392
X0130592
Y0035045
X0128392
X0126192
Y0037465
X0128392
X0130592
Y0042545
X0128392
X0126192
Y0045005
X0128392
X0130592
Y0050085
X0128392
X0126192
Y0052505
X0128392
X0130592
Y0057585
X0128392
X0126192
Y0059965
X0128392
X0130592
Y0065045
X0128392
X0126192
Y0067465
X0128392
X0130592
X0122992
Y0065045
Y0059965
Y0057585
Y0052505
Y0050085
Y0045005
Y0042545
Y0037465
Y0035045
X014051Y0035045
X014051Y0037465
Y0042545
Y0045005
Y0050085
Y0052505
Y0057585
Y0059965
Y0065045
Y0067465
X014051Y0029965
X014371
X014591
X014811
Y0035045
X014591
X014371
X014371Y0037465
X014591
X014811
Y0042545
X014591
X014371
Y0045005
X014591
X014811
Y0050085
X014591
X014371
Y0052505
X014591
X014811
Y0057585
X014591
X014371
Y0059965
X014591
X014811
Y0065045
X014591
X014371
Y0067465
X014591
X014811
X015851
Y0065045
X016171
X016391
X016611
Y0067465
X016391
X016171
Y0059965
X016391
X016611
Y0057585
X016391
X016171
X015851
Y0059965
Y0052505
Y0050085
X016171
X016391
X016611
Y0052505
X016391
X016171
Y0045005
X016391
X016611
Y0042545
X016391
X016171
X015851
Y0045005
Y0037465
Y0035045
X016171
X016391
X016611
Y0037465
X016391
X016171
Y0029965
X016391
X016611
X015851
Y00725451
Y0074965
X016171
X016391
X016611
Y00725451
X016391
X016171
Y0080045
X016391
X016611
X015851
X014811Y0080045
X014591
X014371
Y0082505
X014591
X014811
Y0087585
X014591
X014371
Y0089965
X014591
X014811
Y0095045
X014591
X014371
Y0074965
X014591
X014811
Y00725451
X014591
X014371
X014051
Y0074965
Y0080045
Y0082505
Y0087585
Y0089965
Y0095045
X0130592Y0080045
X0128392
X0126192
X0122992
Y0074965
Y0072545
X0126192
X0128392
X0130592
Y0074965
X0128392
X0126192
X0112585Y0074965
X0110385
X0108185
Y0072545
X0110385
X0112585
Y0080045
X0110385
X0108185
Y0082505
X0110385
X0112585
Y0087585
X0110385
X0108185
Y0089965
X0110385
X0112585
Y0095045
X0110385
X0108185
X0104985
Y0089965
Y0087585
Y0082505
Y0080045
Y0074965
Y0072545
X0095725Y007254
X0093525
X0091325
Y007496
X0093525
X0095725
Y008004
X0093525
X0091325
X0088125
Y007496
Y007254
X0077725
X0075525
X0073325
Y007496
X0075525
X0077725
Y008004
X0075525
X0073325
Y00825
X0075525
X0077725
Y008758
X0075525
X0073325
Y008996
X0075525
X0077725
Y009504
X0075525
X0073325
X0070125
Y008996
Y008758
Y00825
Y008004
Y007496
Y007254
X0060207Y007254
X0058007
X0055807
Y007496
X0058007
X0060207
Y008004
X0058007
X0055807
X0052607
Y007496
Y007254
X00422
X004
X00378
Y007496
X004
X00422
Y008004
X004
X00378
Y00825
X004
X00422
Y008758
X004
X00378
Y008996
X004
X00422
Y009504
X004
X00378
X00346
Y008996
Y008758
Y00825
Y008004
Y007496
Y007254
X00346001Y012025
X00378
X004
X00422
Y012533
X004
X00378
Y012775
X004
X00422
Y013283
X004
X00378
Y013525
X004
X00422
Y014033
X004
X00378
Y014279
X004
X00422
X00346001
Y014033
Y013525
Y013283
Y012775
Y012533
X0052607Y012533
Y012775
X0055807
X0058007
X0060207
Y012533
X0058007
X0055807
Y01202501
X0058007
X0060207
X0052607
Y013283
Y013525
X0055807
X0058007
X0060207
Y013283
X0058007
X0055807
Y014033
X0058007
X0060207
Y014279
X0058007
X0055807
X0052607
Y014033
X0070125
Y014279
X0073325
X0075525
X0077725
Y014033
X0075525
X0073325
Y013525
X0075525
X0077725
X0077725Y013283
X0075525
X0073325
X0070125
X0070125Y013525
X0070125Y012775
X0070125Y012533
X0073325
X0075525
X0077725
X0077725Y012775
X0075525
X0073325
X0073325Y01202501
X0075525
X0077725
X0070125
X0088125Y012025
X0091325
X0093525
X0095725
Y012533
X0093525
X0091325
X0091325Y012775
X0093525
X0095725
Y013283
X0093525
X0091325
Y013525
X0093525
X0095725
Y014033
X0093525
X0091325
Y014279
X0093525
X0095725
X00881251
Y014033
Y013525
Y013283
Y012775
X0088125Y012533
X01049502Y012538
Y01278
X01081502
X01103502
X01125502
Y012538
X01103502
X01081502
Y01203
X01103502
X01125502
X01049502
Y013288
Y01353
X01081502
X01103502
X01125502
Y013288
X01103502
X01081502
Y014038
X01103502
X01125502
Y014284
X01103502
X01081502
X01049502
Y014038
X01229572Y014038
Y014284
X01261572
X01283572
X01305572
Y014038
X01283572
X01261572
Y01353
X01283572
X01305572
Y013288
X01283572
X01261572
X01229572
Y01353
Y01278
Y01253801
X01261572
X01283572
X01305572
Y01278
X01283572
X01261572
Y01203
X01283572
X01305572
X01229572
X01404751
Y01253801
X01404752Y01278
Y013288
X01404751Y01353
Y014038
Y014284
X01436752
X01458752
X01480752
Y014038
X01458752
X01436752
Y01353
X01458752
X01480752
X01480752Y013288
X01458752
X01436752
Y01278
X01458752
X01480752
X01480752Y01253801
X01458752
X01436752
Y01203
X01458752
X01480752
X01584752Y01203
X01616752
X01638752
X01660752
Y012538
X01638752
X01616752
X01616752Y01278
X01638752
X01660752
Y013288
X01638752
X01616752
Y01353
X01638752
X01660752
Y014038
X01638752
X01616752
Y014284
X01638752
X01660752
X01584752
Y014038
Y01353
Y013288
Y01278
X01584752Y012538
X01584752Y014792
Y015034
X01616752
X01638752
X01660752
Y014792
X01638752
X01616752
Y015542
X01638752
X01660752
Y01578
X01638752
X01616752
X01584752
Y015542
Y016288
Y01653001
X01616752
X01638752
X01660752
Y016288
X01638752
X01616752
Y01703801
X01638752
X01660752
Y01728
X01638752
X01616752
X01584752
Y01703801
Y01778801
X01616752
X01638752
X01660752
X01480752Y017788
X01458752
X01436752
Y018034
X01458752
X01480752
Y018542
X01458752
X01436752
Y01728
X01458752
X01480752
Y01703801
X01458752
X01436752
Y01653001
X01458752
X01480752
Y016288
X01458752
X01436752
Y01578
X01458752
X01480752
Y015542
X01458752
X01436752
Y015034
X01458752
X01480752
Y014792
X01458752
X01436752
X01404751
Y015034
Y015542
Y01578
Y016288
Y01653001
Y01703801
Y01728
Y017788
Y018034
Y018542
X01305572Y01778801
X01283572
X01261572
X01229572
Y01728
Y017038
X01261572
X01283572
X01305572
Y01728
X01283572
X01261572
Y01653
X01283572
X01305572
Y016288
X01283572
X01261572
X01229572
Y01653
Y01578
Y015542
X01261572
X01283572
X01305572
Y01578
X01283572
X01261572
Y01503401
X01283572
X01305572
Y014792
X01283572
X01261572
X01229572
Y01503401
X01125502Y015034
X01103502
X01081502
Y014792
X01103502
X01125502
Y015542
X01103502
X01081502
Y01578
X01103502
X01125502
Y016288
X01103502
X01081502
Y01653
X01103502
X01125502
Y017038
X01103502
X01081502
Y01728
X01103502
X01125502
Y017788
X01103502
X01081502
Y018034
X01103502
X01125502
Y018542
X01103502
X01081502
X01049502
Y018034
Y017788
Y01728
Y017038
Y01653
Y016288
Y01578
Y015542
Y015034
Y014792
X0095725Y014787
X0093525
X0091325
Y015029
X0093525
X0095725
Y015537
X0093525
X0091325
Y015775
X0093525
X0095725
Y016283
X0093525
X0091325
Y01652501
X0093525
X0095725
Y01703301
X0093525
X0091325
Y017275
X0093525
X0095725
Y017783
X0093525
X0091325
X00881251
Y017275
Y01703301
Y01652501
Y016283
Y015775
Y015537
Y015029
Y014787
X0077725Y014787
X0075525
X0073325
Y015029
X0075525
X0077725
Y015537
X0075525
X0073325
Y015775
X0075525
X0077725
Y016283
X0075525
X0073325
Y01652501
X0075525
X0077725
Y01703301
X0075525
X0073325
Y017275
X0075525
X0077725
Y017783
X0075525
X0073325
Y018029
X0075525
X0077725
Y018537
X0075525
X0073325
X0070125
Y018029
Y017783
Y017275
Y01703301
Y01652501
Y016283
Y015775
Y015537
Y015029
Y014787
X0060207Y014787
X0058007
X0055807
Y01502901
X0058007
X0060207
Y01553701
X0058007
X0055807
Y015775
X0058007
X0060207
Y016283
X0058007
X0055807
Y016525
X0058007
X0060207
Y017033
X0058007
X0055807
Y017275
X0058007
X0060207
Y017783
X0058007
X0055807
X0052607
Y017275
Y017033
Y016525
Y016283
Y015775
Y01553701
Y01502901
Y014787
X00422Y014787
X004
X00378
Y015029
X004
X00422
Y015537
X004
X00378
Y015775
X004
X00422
Y016283
X004
X00378
Y016525
X004
X00422
Y017033
X004
X00378
Y017275
X004
X00422
Y017783
X004
X00378
Y018029
X004
X00422
Y018537
X004
X00378
X00346001
Y018029
Y017783
Y017275
Y017033
Y016525
Y016283
Y015775
Y015537
Y015029
Y014787
Y018775
X00378
X004
X00422
Y019283
X004
X00378
X00346001
X0070125
X0073325
X0075525
X0077725
Y018775
X0075525
X0073325
X0070125
X01049502Y01878
X01081502
X01103502
X01125502
Y019288
X01103502
X01081502
X01049502
X01404751
Y01878
X01436752
X01458752
X01480752
Y019288
X01458752
X01436752
T03
X00239118Y0098675
X00240243Y0106135
X0016745Y0102405
Y0099865
X00163396Y0121
X00198396
Y0126
X00163396
Y0131
X00198394Y01309998
Y01359998
X00163394
X00250022
X00283394
X00283396Y0131
X00250022Y01309998
X00250024Y0126
X00283396
Y0121
X00250024
X00078557Y0168
T04
X01784Y0042645
Y0045415
Y0048185
Y0050955
Y0053725
Y0056495
Y0059265
Y0062035
Y0064805
Y0067575
X018124Y0066115
Y006327
Y00605
Y0057805
Y0055035
Y0052265
Y0049495
Y00468
Y004403
X01964Y0042645
Y0045415
Y0048185
Y0050955
Y0053725
Y0056495
Y0059265
Y0062035
Y0064805
Y0067575
X019924Y0066115
Y006327
Y00605
Y0057805
Y0055035
Y0052265
Y0049495
Y00468
Y004403
X02144Y0045415
Y0048185
Y0050955
Y0053725
Y0056495
Y0059265
Y0062035
Y0064805
Y0067575
X021724Y0066115
Y006327
Y00605
Y0057805
Y0055035
Y0052265
Y0049495
Y00468
Y004403
X02144Y0042645
X02324
Y0045415
Y0048185
Y0050955
Y0053725
Y0056495
Y0059265
Y0062035
Y0064805
Y0067575
X023524Y0066115
Y006327
Y00605
Y0057805
Y0055035
Y0052265
Y0049495
Y00468
Y004403
Y0068885
Y007158
Y007435
Y007712
Y008004
Y008281
Y0085505
Y0088275
Y0091045
X02324Y0089735
Y0092505
Y0086965
Y0084195
Y0081425
Y0078655
Y0075885
Y0073115
Y0070345
X021724Y007158
Y0068885
X02144Y0070345
Y0073115
Y0075885
Y0078655
Y0081425
Y0084195
Y0086965
Y0089735
Y0092505
X021724Y0091045
Y0088275
Y0085505
Y008281
Y008004
Y007712
Y007435
X019924Y007435
Y007158
Y0068885
X01964Y0070345
Y0073115
Y0075885
Y0078655
Y0081425
Y0084195
Y0086965
Y0089735
Y0092505
X019924Y0091045
Y0088275
Y0085505
Y008281
Y008004
Y007712
X018124
Y007435
Y007158
Y0068885
Y008004
Y008281
Y0085505
Y0088275
Y0091045
X01784Y0089735
Y0092505
Y0086965
Y0084195
Y0081425
Y0078655
Y0075885
Y0073115
Y0070345
Y014048
Y014325
Y014602
X018124Y014733
Y0144635
Y0141865
X01964Y014325
Y014602
X019924Y014733
Y0144635
Y0141865
X01964Y014048
X02144Y014048
Y014325
Y014602
X021724Y014733
Y0144635
Y0141865
X02324Y014325
Y014048
X023524Y0141865
Y0144635
Y014733
X02324Y014602
Y014879
Y015156
Y015433
Y01571
Y015987
Y016264
Y016541
Y016818
Y017095
Y017372
Y017649
Y017926
Y018203
Y01848
X023524Y018611
Y018334
Y0180645
Y0177875
Y0174955
Y0172185
Y0169415
Y016672
Y016395
Y0161105
Y0158335
Y015564
Y015287
Y01501
X021724
Y015287
Y015564
Y0158335
Y0161105
Y016395
Y016672
Y0169415
Y0172185
Y0174955
Y0177875
Y0180645
Y018334
Y018611
X02144Y01848
Y018203
Y017926
Y017649
Y017372
Y017095
Y016818
Y016541
Y016264
Y015987
Y01571
Y015433
Y015156
Y014879
X019924Y01501
Y015287
Y015564
Y0158335
Y0161105
Y016395
Y016672
Y0169415
Y0172185
Y0174955
Y0177875
Y0180645
Y018334
Y018611
X01964Y01848
Y018203
Y017926
Y017649
Y017372
Y017095
Y016818
Y016541
Y016264
Y015987
Y01571
Y015433
Y015156
Y014879
X018124Y01501
Y015287
Y015564
Y0158335
Y0161105
Y016395
Y016672
Y0169415
Y0172185
Y0174955
Y0177875
Y0180645
Y018334
Y018611
X01784Y01848
Y018203
Y017926
Y017649
Y017372
Y017095
Y016818
Y016541
Y016264
Y015987
Y01571
Y015433
Y015156
Y014879
Y018757
Y019034
X018124Y018888
X01964Y018757
Y019034
X019924Y018888
X02144Y018757
Y019034
X021724Y018888
X02324Y018757
Y019034
X023524Y018888
T05
X0008Y0121
Y0126
Y0131
Y0136
Y015565
Y016065
X0027Y0209675
Y0214375
X0037
Y0209675
X0047
Y0214375
X0057
Y0209675
X0067
Y0214375
X0077
Y0209675
X0087
Y0214375
X0097
Y0209675
X0107
Y0214375
X0117
Y0209675
X0127
Y0214375
X0137
Y0209675
X0147
Y0214375
X0157
Y0209675
X0167
Y0214375
X0177
Y0209675
X0187
Y0214375
X0197
Y0209675
Y0231375
Y0236075
X0187
Y0231375
Y0253075
Y0257775
X0197
Y0253075
X0177
Y0257775
X0167
Y0253075
X0157
Y0257775
X0147
Y0253075
Y0236075
Y0231375
X0157
Y0236075
X0167
Y0231375
X0177
Y0236075
X0137
Y0231375
X0127
Y0236075
X0117
Y0231375
X0107
Y0236075
Y0253075
Y0257775
X0117
Y0253075
X0127
Y0257775
X0137
Y0253075
X0097
Y0257775
X0087
Y0253075
X0077
Y0257775
X0067
Y0253075
Y0236075
Y0231375
X0077
Y0236075
X0087
Y0231375
X0097
Y0236075
X0057
Y0231375
X0047
Y0236075
X0037
Y0231375
X0027
Y0236075
Y0253075
Y0257775
X0037
Y0253075
X0047
Y0257775
X0057
Y0253075
Y0274775
Y0279475
X0047
Y0274775
X0037
Y0279475
X0027
Y0274775
X0067
Y0279475
X0077
Y0274775
X0087
Y0279475
X0097
Y0274775
X0107
Y0279475
X0117
Y0274775
X0127
Y0279475
X0137
Y0274775
X0147
Y0279475
X0157
Y0274775
X0167
Y0279475
X0177
Y0274775
X0187
Y0279475
X0197
Y0274775
T06
X017982Y0035825
X019782
X021582Y0035825
X023382
Y0099325
X021582
X019782Y0099325
X017982
Y013366
X019782
X021582Y013366
X023382
X017982Y019716
X019782
X021582Y019716
X023382
T07
X0234Y0006
X0006
X00059999Y02839753
X02340001
M30
